<?xml version="1.0" standalone="no"?>
<!DOCTYPE svg PUBLIC "-//W3C//DTD SVG 20010904//EN"
 "http://www.w3.org/TR/2001/REC-SVG-20010904/DTD/svg10.dtd">
<svg version="1.0" xmlns="http://www.w3.org/2000/svg"
 width="700.000000pt" height="700.000000pt" viewBox="0 0 700.000000 700.000000"
 preserveAspectRatio="xMidYMid meet">
<metadata>
Created by potrace 1.11, written by Peter Selinger 2001-2013
</metadata>
<g transform="translate(0.000000,700.000000) scale(0.100000,-0.100000)"
fill="#000000" stroke="none">
<path d="M3387 6924 c-1 -1 -53 -5 -116 -8 -63 -4 -117 -9 -120 -10 -3 -2 -40
-7 -80 -10 -41 -4 -77 -9 -80 -11 -4 -1 -28 -6 -56 -10 -229 -30 -595 -138
-839 -248 -396 -177 -759 -429 -1063 -738 -567 -577 -903 -1309 -973 -2124 -8
-103 -6 -504 4 -570 3 -16 8 -57 12 -90 17 -145 23 -181 55 -325 16 -74 31
-144 34 -156 3 -12 23 -79 46 -150 227 -713 675 -1325 1290 -1762 188 -133
448 -278 639 -357 36 -14 79 -32 95 -39 17 -8 53 -21 80 -31 28 -9 59 -21 70
-25 154 -58 504 -137 685 -155 36 -3 72 -8 80 -10 30 -8 219 -17 350 -16 186
0 271 6 515 36 22 3 51 7 65 10 14 3 39 8 55 11 533 95 1059 333 1500 678 642
503 1088 1224 1244 2011 32 160 36 186 46 280 3 33 9 80 12 105 8 69 10 445 2
540 -18 219 -42 373 -89 565 -137 559 -426 1092 -815 1504 -98 104 -238 239
-277 267 -18 14 -37 30 -43 37 -38 46 -336 252 -505 348 -292 167 -674 313
-977 374 -73 15 -192 36 -228 40 -22 3 -51 7 -65 10 -32 6 -104 13 -205 21
-71 6 -343 12 -348 8z"/>
</g>
</svg>
