<svg version="1" xmlns="http://www.w3.org/2000/svg" width="933.333" height="933.333" viewBox="0 0 700.000000 700.000000"><path d="M343.7 7.6c-.1.1-6.5.5-14.1.9-7.7.3-14.2.8-14.5.9-.3.2-4 .7-8 1-4.1.4-7.7.9-8 1.1-.4.1-2.8.6-5.6 1-8.3 1.1-28.4 5.5-37.5 8.2-33.3 9.9-57.5 20.3-84.2 36.4-9.3 5.6-28.5 18.4-29.8 19.9-.3.3-2.5 2.1-5 4-30.7 23.3-63.1 60-83.7 94.4-25 41.9-40.2 87.3-46.4 138.6-2 16.4-1.6 62.6.6 75 .2 1.4.7 4.5.9 7 .9 8.3 3.4 21.3 8.1 41.6 1.4 6.3 9.4 29.5 13.8 40.4 33.2 81.9 100 150.5 180.2 184.9 5.5 2.3 11.4 4.9 13 5.6 1.7.7 5.3 2 8 3 2.8.9 5.9 2.1 7 2.5 13.3 5.3 50.9 13.8 68.5 15.5 3.6.3 7.2.8 8 1 3 .7 24.7 1.7 36.5 1.7 17.5-.1 26.3-.8 50-3.7 2.2-.3 5.1-.7 6.5-1 1.4-.3 3.9-.8 5.5-1.1 53.3-9.5 105.9-33.3 150-67.8 64.2-50.3 108.9-122.5 124.4-201.1 1.6-8.3 3.2-17.3 3.6-20 .3-2.8.8-6.4 1-8 1.3-8.7 1.8-18.9 2-36.5.2-32.1-2.4-55.3-9.5-84.5-13.7-55.9-42.6-109.2-81.5-150.4-9.8-10.4-23.8-23.9-27.7-26.7-1.8-1.4-3.7-3-4.3-3.7-3.8-4.6-33.6-25.2-50.5-34.8-29.1-16.6-67.9-31.5-97.7-37.4-9.4-1.9-24.6-4.4-29.4-5-3.1-.3-6.5-.7-7.5-.9-3.6-.7-42.2-2.5-42.7-2z"/></svg>