<?xml version="1.0" encoding="UTF-8" standalone="no"?>
<!-- Generator: Adobe Illustrator 16.0.3, SVG Export Plug-In . SVG Version: 6.00 Build 0)  -->

<svg
   xmlns:dc="http://purl.org/dc/elements/1.1/"
   xmlns:cc="http://creativecommons.org/ns#"
   xmlns:rdf="http://www.w3.org/1999/02/22-rdf-syntax-ns#"
   xmlns:svg="http://www.w3.org/2000/svg"
   xmlns="http://www.w3.org/2000/svg"
   xmlns:xlink="http://www.w3.org/1999/xlink"
   xmlns:sodipodi="http://sodipodi.sourceforge.net/DTD/sodipodi-0.dtd"
   xmlns:inkscape="http://www.inkscape.org/namespaces/inkscape"
   version="1.1"
   id="Layer_1"
   x="0px"
   y="0px"
   width="226.771px"
   height="226.771px"
   viewBox="0 0 226.771 226.771"
   enable-background="new 0 0 226.771 226.771"
   xml:space="preserve"
   inkscape:version="0.91 r13725"
   sodipodi:docname="logo-01.svg"><metadata
     id="metadata3678"><rdf:RDF><cc:Work
         rdf:about=""><dc:format>image/svg+xml</dc:format><dc:type
           rdf:resource="http://purl.org/dc/dcmitype/StillImage" /></cc:Work></rdf:RDF></metadata><defs
     id="defs3676" /><sodipodi:namedview
     pagecolor="#ffffff"
     bordercolor="#666666"
     borderopacity="1"
     objecttolerance="10"
     gridtolerance="10"
     guidetolerance="10"
     inkscape:pageopacity="0"
     inkscape:pageshadow="2"
     inkscape:window-width="1680"
     inkscape:window-height="987"
     id="namedview3674"
     showgrid="false"
     inkscape:zoom="3.4748712"
     inkscape:cx="100.72316"
     inkscape:cy="113.3855"
     inkscape:window-x="-8"
     inkscape:window-y="-8"
     inkscape:window-maximized="1"
     inkscape:current-layer="Layer_1" /><g
     id="g3337"><radialGradient
       id="SVGID_1_"
       cx="125.8506"
       cy="170.2197"
       r="157.1785"
       gradientUnits="userSpaceOnUse"><stop
         offset="0.0134"
         style="stop-color:#FFDD8F"
         id="stop3340" /><stop
         offset="0.297"
         style="stop-color:#F8992A"
         id="stop3342" /><stop
         offset="0.5636"
         style="stop-color:#E13126"
         id="stop3344" /><stop
         offset="0.897"
         style="stop-color:#A41E22"
         id="stop3346" /></radialGradient><ellipse
       fill="url(#SVGID_1_)"
       cx="113.386"
       cy="113.386"
       rx="111.705"
       ry="110.893"
       id="ellipse3348" /><g
       id="g3350"><linearGradient
         id="SVGID_2_"
         gradientUnits="userSpaceOnUse"
         x1="91.813"
         y1="38.0898"
         x2="102.9565"
         y2="38.0898"><stop
           offset="0.1065"
           style="stop-color:#F79227"
           id="stop3353" /><stop
           offset="1"
           style="stop-color:#A91F23"
           id="stop3355" /></linearGradient><path
         fill="url(#SVGID_2_)"
         d="M99.729,35.535c-0.807,0.654-0.812,0.396-1.567,0.704c-0.757,0.31-1.099,0.45-1.514,0.882    c-0.412,0.433-1.016,0.747-1.563,0.973c-0.547,0.228-0.319-0.328-0.894-0.487c-0.57-0.163-2.698,1.782-2.337,2.029    c0.365,0.243,1.143-0.544,2.099-0.941c0.959-0.398-0.04,0.412-0.246,0.498c-0.206,0.085-1.401,1.31-1.401,1.311    c0.579-0.111,1.16-0.223,1.743-0.336c-0.239,0.341-0.479,0.682-0.719,1.024c0,0,1.365-0.639,1.71-0.52    c0.345,0.119,1.405,0.001,2.039-0.262c0.63-0.263,1.333-0.555,1.33-0.814c-0.001-0.261,1.483-1.33,2.641-1.933    c1.161-0.606,1.91-2.138,1.908-2.137C102.515,34.735,100.532,34.883,99.729,35.535z"
         id="path3357" /><linearGradient
         id="SVGID_3_"
         gradientUnits="userSpaceOnUse"
         x1="27.7681"
         y1="55.6943"
         x2="32.5796"
         y2="55.6943"><stop
           offset="0.1065"
           style="stop-color:#F79227"
           id="stop3360" /><stop
           offset="1"
           style="stop-color:#A91F23"
           id="stop3362" /></linearGradient><path
         fill="url(#SVGID_3_)"
         d="M27.768,57.339c0.334,0.078,0.667,0.155,1.001,0.232c0,0.001-0.233,1.082,0.64,0.756    c0.875-0.326,0.757-0.881,0.757-0.881c0,0.001,1.06-0.6,1.409-0.835c0.351-0.23-0.167-1.549-0.167-1.552    c0.222-0.085,0.444-0.171,0.667-0.258c-0.001,0.002,0.698-1.293,0.451-1.716c-0.249-0.418-1.042,0.82-1.412,0.961    c-0.372,0.144-1.112,0.426-1.111,0.425c-0.188,0.243-0.377,0.485-0.564,0.725c-0.023,0.383-0.046,0.764-0.069,1.143    c0-0.001,0,0-0.742-0.127C27.883,56.086,27.768,57.341,27.768,57.339z"
         id="path3364" /><linearGradient
         id="SVGID_4_"
         gradientUnits="userSpaceOnUse"
         x1="30.2852"
         y1="55.9717"
         x2="36.813"
         y2="55.9717"><stop
           offset="0.1065"
           style="stop-color:#F79227"
           id="stop3367" /><stop
           offset="1"
           style="stop-color:#A91F23"
           id="stop3369" /></linearGradient><path
         fill="url(#SVGID_4_)"
         d="M34.425,54.494c0,0,0.598-0.235,0.956-0.48c0.355-0.24,1.21-1.71,1.42-1.901    c0.208-0.185-2.419,0.143-2.417,0.139c-0.322,0.44-1.198,1.709-1.456,2.013c-0.26,0.31-0.155,1.584-0.453,1.697    c-0.296,0.116-0.892,1.45-1.292,1.8c-0.401,0.352-0.899,1.328-0.899,1.327c0.164,0.268,0.328,0.534,0.491,0.799    c0.315-0.118,0.63-0.237,0.946-0.357c0.233-0.381,0.468-0.765,0.704-1.151c0.391-0.15,0.783-0.301,1.176-0.453    c-0.063-0.306-0.126-0.613-0.19-0.921c0.029-0.377,0.058-0.755,0.086-1.136C33.805,55.414,34.115,54.955,34.425,54.494z"
         id="path3371" /><linearGradient
         id="SVGID_5_"
         gradientUnits="userSpaceOnUse"
         x1="36.2793"
         y1="55.5928"
         x2="56.6094"
         y2="55.5928"><stop
           offset="0.1065"
           style="stop-color:#F79227"
           id="stop3374" /><stop
           offset="1"
           style="stop-color:#A91F23"
           id="stop3376" /></linearGradient><path
         fill="url(#SVGID_5_)"
         d="M51.247,55.785c0.396-0.168,1.491,0.232,1.743,0.696c0.251,0.466,0.36,0.608,0.913-0.199    c0.554-0.81,0.073-1.084,1.437-1.766c1.369-0.684,1.872-1.382,0.28-1.473c-1.585-0.099-1.355-0.296-2.495-0.396    c-1.139-0.102-2.021,0.767-2.191,0.249c-0.174-0.519,1.767-1.249,1.769-1.251c-0.001,0.001,1.352-1.274,0.285-0.917    c-1.07,0.36-3.094,0.524-2.133,0.114c0.961-0.409-0.764-0.478-0.762-0.48c-0.126-0.249-0.252-0.5-0.378-0.751    c-0.001,0.001-1.514,0.137-1.225-0.192c0.286-0.326-1.287-0.069-0.985-0.299c0.303-0.23,0.528-0.944,0.289-0.843    c-0.24,0.103-1.813-0.164-2.82,0.362c-1.005,0.528-0.244,1.55,0.147,1.384c0.393-0.165,1.024,0.082,1.024,0.082    c0,0-0.85,0.459-1.084,0.556c-0.237,0.101-1.838,0.975-1.836,0.974c0.173-0.277,0.348-0.555,0.522-0.833    c0.169-0.309,0.34-0.619,0.51-0.931c-0.039-0.224-0.076-0.45-0.115-0.676c-0.492,0.241-0.98,0.479-1.468,0.716    c-0.41,0.205-0.818,0.409-1.225,0.612c-0.261,0.246-0.521,0.49-0.78,0.735c0.168-0.447,0.336-0.896,0.506-1.347    c-0.29,0.397-0.579,0.792-0.866,1.185c-0.272,0.332,0.228,3.075-0.076,3.189c-0.305,0.127-1.063-0.879-1.064-0.881    c0,0,0.504-0.813,0.605-1.163c0.102-0.347-0.974-0.833-0.975-0.834c-0.535,0.666-1.066,1.326-1.593,1.979    c-0.311,0.363-0.62,0.725-0.928,1.084c0.048,0.385,0.096,0.77,0.144,1.151c0.456-0.147,0.913-0.296,1.37-0.446    c-0.447,0.347-0.892,0.691-1.335,1.034c0.067,0.206,0.134,0.411,0.201,0.616c0.373-0.148,0.747-0.298,1.122-0.448    c0,0.001,1.721-0.292,3.013-0.822c1.291-0.527,2.523-1.039,2.523-1.039c0.192-0.312,0.386-0.625,0.58-0.939    c-0.001,0.001,1.742-0.024,2.027,0.646c0.283,0.675,1.438,0.582,1.549,1.219c0.11,0.637-0.28,1.285-0.96,1.667    c-0.683,0.383-0.978,1.944-0.978,1.942c0,0,0.02,0.563-0.515,0.783c-0.535,0.222-1.604,0.187-1.948,0.517    c-0.345,0.332-1.047,0.9-1.046,0.9c-0.002,0.004-1.151,1.967-0.331,1.634c0.821-0.331,0.547-0.5,1.073-0.713    c0.52-0.21,2.606-1.72,3.036-0.311c0.424,1.405,1.508,1.042,1.987,0.938c0.475-0.104,1.932,0.116,1.887-0.142    c-0.048-0.256,1.152-0.571-0.064-1.264c-1.214-0.7-0.671-1.397,0.015-0.843c0.686,0.55,1.483,0.77,1.802-0.293    c0.318-1.068,1.366-1.419,0.214-2.156c-1.148-0.743-1.224-1.194-1.225-1.192C50.42,56.907,50.849,55.955,51.247,55.785z"
         id="path3378" /><linearGradient
         id="SVGID_6_"
         gradientUnits="userSpaceOnUse"
         x1="36.1006"
         y1="39.4678"
         x2="66.9951"
         y2="39.4678"><stop
           offset="0.1065"
           style="stop-color:#F79227"
           id="stop3381" /><stop
           offset="1"
           style="stop-color:#A91F23"
           id="stop3383" /></linearGradient><path
         fill="url(#SVGID_6_)"
         d="M37.337,49.287c-0.442,0.287,0.121,1.526,0.348,1.432c0.229-0.093,0.918-0.374,1.611-0.658    c0.693-0.284,1.388-0.571,2.165-0.894c0.777-0.322,1.42-0.485,1.968-0.715c0.55-0.229,0.969-0.72,2.126-1.416    c1.158-0.699,1.082-1.725,1.081-1.725c-0.002,0.002-2.008,0.744-2.244,0.842c-0.237,0.1-2.247,1.263-4.57,2.22    C37.5,49.33,40.36,47.2,40.365,47.195c-0.004,0.003,2.547-1.271,2.789-1.375c0.236-0.098,1.79-0.964,1.791-0.966    c0.961-0.37,1.927-0.744,2.9-1.121c-0.001,0,1.049-0.446,0.761-0.646c-0.288-0.197-0.642-0.804,0.17-1.15    c0.812-0.345,1.601-0.896,1.601-0.896c0.084-0.217,0.168-0.434,0.252-0.651c-0.004,0.002,2.509-1.393,2.749-1.607    c0.234-0.208-0.997,0.425-1.409,0.601c-0.412,0.177,0.138-1.481,0.609-1.904c0.465-0.419,3.254-1.384,4.019-1.707    c0.759-0.323,1.353-0.574,1.933-0.929c0.581-0.356,1.114-1.796,1.8-2.086c0.685-0.289,1.922-1.249,2.6-1.644    c0.676-0.392,2.448-1.569,2.449-1.568c0.538-0.333,1.078-0.666,1.619-0.997c0,0.001-0.989-0.596-2.219-0.203    c-1.229,0.393-1.476,0.608-2.428,1.002c-0.95,0.395-1.209,0.501-2.412,1.003c-1.202,0.501-1.801,0.753-3.161,1.324    c-1.359,0.572-1.107,0.466-3.215,1.355c-2.098,0.887-1.918,0.924-4.001,2.374c-2.074,1.446-3.013,1.504-3.914,1.885    c-0.897,0.379-1.186,1.292-1.186,1.291c0.049,0.317,0.099,0.633,0.148,0.948c0.093,0.221,0.185,0.442,0.277,0.662    c0,0-0.646,0.272-0.936,0.061c-0.291-0.211-1.032-0.01-1.032-0.01s-0.608,0.479-0.926,0.612c-0.32,0.135-1.437,0.602-1.911,0.799    c-0.476,0.201-0.989,1.633-0.988,1.63c0.092,0.366,0.184,0.731,0.275,1.093c0,0.001,0.847,0.52,1.161,0.388    c0.314-0.13,1.102-0.458,1.56-0.76c0.457-0.298,1.475-0.834,1.714-0.937c0.239-0.1,1.041,0.107,1.041,0.106    c0,0,0.001,0.542-0.237,0.643c-0.239,0.102-0.688-0.036-0.688-0.036s-0.794,0.333-1.112,0.466    c-0.316,0.134-0.69,0.937-1.161,1.133c-0.472,0.197-0.943,0.393-1.257,0.523c-0.313,0.129-0.554,0.66-1.099,0.884    c-0.545,0.225-1.702,0.271-2.298,0.193c-0.598-0.078-0.892,1.436-0.892,1.434c0.511-0.208,1.024-0.416,1.539-0.626    C37.64,47.787,37.779,49.003,37.337,49.287z"
         id="path3385" /><linearGradient
         id="SVGID_7_"
         gradientUnits="userSpaceOnUse"
         x1="30.6323"
         y1="51.2002"
         x2="33.4878"
         y2="51.2002"><stop
           offset="0.1065"
           style="stop-color:#F79227"
           id="stop3388" /><stop
           offset="1"
           style="stop-color:#A91F23"
           id="stop3390" /></linearGradient><path
         fill="url(#SVGID_7_)"
         d="M32.106,52.215c0.45-0.176,1.035-0.094,1.107-0.54c0.073-0.446,0.127-0.993,0.127-0.993    c0.049-0.3,0.098-0.602,0.147-0.904c-0.424,0.063-0.847,0.125-1.27,0.185c0.021,0.239,0.042,0.478,0.063,0.715    c0,0.002-0.159,1.219-0.313,0.857c-0.154-0.357-0.374-1.434-0.56-1.149c-0.188,0.287-0.776,1.358-0.775,1.356    c0.143,0.294,0.285,0.587,0.427,0.879C31.059,52.622,31.657,52.39,32.106,52.215z"
         id="path3392" /><linearGradient
         id="SVGID_8_"
         gradientUnits="userSpaceOnUse"
         x1="34.1201"
         y1="50.7329"
         x2="36.2988"
         y2="50.7329"><stop
           offset="0.1065"
           style="stop-color:#F79227"
           id="stop3395" /><stop
           offset="1"
           style="stop-color:#A91F23"
           id="stop3397" /></linearGradient><path
         fill="url(#SVGID_8_)"
         d="M34.12,51.733c0,0,0.887-0.458,1.209-0.482c0.321-0.025,0.969-0.494,0.969-0.494    c0,0.001,0.025-1.164-0.357-1.011c-0.382,0.154-1.181,0.684-1.18,0.684C34.546,50.867,34.333,51.302,34.12,51.733z"
         id="path3399" /><linearGradient
         id="SVGID_9_"
         gradientUnits="userSpaceOnUse"
         x1="31.5244"
         y1="46.9482"
         x2="34.7617"
         y2="46.9482"><stop
           offset="0.1065"
           style="stop-color:#F79227"
           id="stop3402" /><stop
           offset="1"
           style="stop-color:#A91F23"
           id="stop3404" /></linearGradient><path
         fill="url(#SVGID_9_)"
         d="M32.599,47.778c0.349-0.175,0.699-0.351,1.05-0.528c0.109,0.137,0.218,0.273,0.327,0.409    c0.262-0.069,0.524-0.139,0.786-0.21c-0.044-0.377-0.089-0.756-0.134-1.137c-0.289-0.064-0.577-0.129-0.865-0.194    c-0.283,0.113-0.564,0.227-0.846,0.339c-0.466,0.295-0.93,0.588-1.392,0.879c0.299-0.01,0.599-0.02,0.899-0.031    C32.482,47.464,32.541,47.622,32.599,47.778z"
         id="path3406" /><linearGradient
         id="SVGID_10_"
         gradientUnits="userSpaceOnUse"
         x1="54.3789"
         y1="36.4941"
         x2="103.8867"
         y2="36.4941"><stop
           offset="0.1065"
           style="stop-color:#F79227"
           id="stop3409" /><stop
           offset="1"
           style="stop-color:#A91F23"
           id="stop3411" /></linearGradient><path
         fill="url(#SVGID_10_)"
         d="M102.079,16.205c-1.739,0.514-3.098,1.145-3.511,1.343c-0.41,0.195-2.115,0.814-2.302,0.879    c-0.183,0.058,0.901-0.706,0.009-0.899c-0.079-0.017-0.155-0.033-0.229-0.053c0.005-0.009,0.01-0.019,0.016-0.027    c0,0-0.425-0.486-0.528-0.522c-0.104-0.037-0.657-0.034-0.657-0.034c-0.218-0.117-0.435-0.235-0.651-0.354    c0.001-0.001-0.861,0.419-1.021,0.435c-0.159,0.015-0.705,0.052-0.902,0.046c-0.196-0.008-0.98-0.037-0.98-0.037    c-0.259,0.193-0.519,0.387-0.78,0.583c-0.06-0.1-0.119-0.2-0.179-0.3c-0.204,0.08-0.408,0.16-0.612,0.241    c-0.316,0.058-0.632,0.116-0.948,0.175c-0.188,0.113-0.377,0.226-0.566,0.34c-0.003-0.024-0.007-0.047-0.011-0.071    c-0.177,0.048-0.354,0.097-0.532,0.146c-0.251,0.136-0.502,0.272-0.754,0.409c-0.297,0.127-0.594,0.257-0.891,0.386    c-0.074-0.061-0.147-0.121-0.222-0.181c-0.276,0.047-0.552,0.095-0.827,0.143c-0.275,0.209-0.551,0.419-0.827,0.629    c-0.168,0.123-0.336,0.246-0.504,0.369c-0.115-0.045-0.23-0.091-0.345-0.138c-0.364,0.132-0.728,0.264-1.092,0.396    c-0.107,0.177-0.214,0.354-0.321,0.532c-0.083-0.045-0.165-0.091-0.246-0.137c-0.292,0.096-0.586,0.191-0.879,0.288    c-0.151,0.182-0.302,0.365-0.452,0.547c-0.222,0.221-0.445,0.443-0.667,0.666c-0.154-0.005-0.307-0.01-0.46-0.016    c-0.32,0.146-0.639,0.292-0.958,0.438c-0.12,0.008-0.239,0.016-0.358,0.023c-0.232,0.318-0.465,0.635-0.696,0.954    c-0.127,0.036-0.253,0.073-0.38,0.109c-0.168,0.141-0.335,0.282-0.503,0.423c-0.209,0.068-0.419,0.137-0.629,0.205    c-0.061-0.052-0.122-0.104-0.183-0.157c-0.224,0.215-0.448,0.431-0.671,0.646c-0.324,0.204-0.646,0.407-0.969,0.611    c-0.197,0.352-0.393,0.702-0.589,1.052c-0.326,0.181-0.651,0.361-0.977,0.542c0,0,0.761-0.688-1.038,0.032    c-1.799,0.724-2.968,1.202-3.46,1.402c-0.495,0.202-1.904,1.327-1.999,1.6c-0.095,0.272-1.37,0.878-1.369,0.878    c-0.013,0-5.007,3.336-3.946,3.124c1.053-0.211,1.578,0.411,0.193,0.996c-1.384,0.586-2.574,2.087-4.346,2.842    c-1.773,0.756-2.729,2.308-1.147,1.631c1.583-0.676,3.507-1.344,3.508-1.344c-0.013,0.004-4.227,2.938-2.397,2.602    c1.826-0.333,1.503,0.028,2.867-0.555c1.369-0.586,1.583-1.793,3.193-1.661c1.611,0.127,1.898-0.144,2.093,0.801    c0.195,0.943,1.008,1.677,0.5,2.613s-1.634,1.563-1.633,1.563c0.001,0.001-0.163,1.068,0.963,0.439    c1.129-0.628,1.793-1.839,1.923-1.397c0.13,0.445,1.053,1.386,1.053,1.384c0,0.001-1.251-0.094-1.917,0.193    c-0.667,0.288-1.462,0.987-0.677,1.068c0.785,0.083,2.095-0.274,2.279-0.354c0.184-0.079-0.163,1.048-0.641,1.322    c-0.479,0.278-2.071,1.661-2.069,1.66c-0.001,0-1.42,1.591-1.04,3.127c0.38,1.529,0.625,1.82,0.833,2.665    c0.209,0.844,0.069,2.616,0.7,2.863c0.63,0.25,0.729,0.791,1.686,0.636c0.959-0.155,1.564-0.484,1.749-0.564    c0.185-0.08,0.389,0.287,0.766,0.511c0.38,0.222,0.75,0.062,1.813-0.399c0.287-0.382,0.575-0.765,0.863-1.149    c0.346-0.667,0.881-2.139,0.881-2.14c0,0,0.567-0.964,0.346-1.398c-0.217-0.431-0.006,0.334,1.112-1.008    c1.12-1.345,1.355-1.581,1.238-2.195c-0.117-0.615-0.441-0.877-0.186-0.988c0.255-0.11,0.574-0.985,1.599-1.428    c1.029-0.444,0.64,0.46,2.621-1.265c1.986-1.726,1.978-1.788,2.912-2.794c0.934-1.004,0.021-0.955,1.346-1.787    c1.327-0.832,1.222-0.653,2.609-1.572c1.386-0.92,1.89-1.6,2.485-1.847c0.597-0.249,2.676-1.984,4.568-3.216    c1.893-1.233,1.523-0.947,1.19-0.814c-0.337,0.135-3.107,0.714-3.91,0.975c-0.804,0.258,0.546-1.103,0.545-1.101    c0-0.001,0.941-0.92,1.106-0.513c0.164,0.406,0.53,0.73,1.724,0.251c1.196-0.48,1.945-0.975,1.114-1.381    c-0.826-0.412-0.758-0.439-1.321-0.688c-0.56-0.251-0.676-0.14-1.466-0.167c-0.789-0.027-1.597-0.188-1.271-0.317    c0.326-0.129,1.064-0.625,2.104-1.029c1.042-0.405,1.367-0.529,1.888-0.73c0.521-0.2,1.328-0.104,1.301-0.499    c-0.017-0.256-0.435-0.304-0.796-0.277c0.48-0.135,1.196-0.406,1.588-0.826c0.67-0.722,1.284-1.345,0.382-1.013    c-0.902,0.333,0.62-0.9,0.618-0.897c0,0,0.484-1.112-0.854-0.629c-1.342,0.489-2.466,0.083-0.939-0.471    c1.527-0.551,2.539-1.171,2.191-1.185c-0.348-0.01-2.275-0.076-2.273-0.077c-0.003,0.005-0.14-0.371,2.026-1.788    c2.156-1.402,2.398-2.458,2.95-2.634c0.549-0.172,0.971-0.568,1.739-0.864c0.768-0.298,1.124-0.851,1.124-0.851    C103.885,16.2,103.812,15.698,102.079,16.205z"
         id="path3413" /><linearGradient
         id="SVGID_11_"
         gradientUnits="userSpaceOnUse"
         x1="51.8218"
         y1="77.3574"
         x2="58.6113"
         y2="77.3574"><stop
           offset="0.1065"
           style="stop-color:#F79227"
           id="stop3416" /><stop
           offset="1"
           style="stop-color:#A91F23"
           id="stop3418" /></linearGradient><path
         fill="url(#SVGID_11_)"
         d="M56.338,73.996c-1.336,0.626-1.331,0.623-1.332,0.623c0.037,0.041,0.075,0.082,0.112,0.123    c-0.002,0.001-0.987,0.985-1.304,1.855c-0.317,0.87-0.682,1.505-1.188,1.868c-0.507,0.367-0.806,2.347-0.806,2.343    c0.004-0.002-0.009,0.005,1.847-0.718c1.862-0.727,2.646-1.528,2.643-1.528c0.105,0.205,0.21,0.408,0.315,0.611    c0.3,0.045,0.601,0.089,0.903,0.133c0,0,0.563-0.222,0.834-0.573c0.271-0.353,0.248-0.835,0.248-0.835    c-0.083-0.104-0.166-0.208-0.249-0.313c-0.063-0.277-0.127-0.554-0.19-0.832c-0.036-0.289-0.071-0.578-0.107-0.869    c-0.001,0-0.99-0.099-1.497,0.353c-0.507,0.452-0.812,0.242-0.812,0.242c0.14-0.276,0.28-0.553,0.42-0.831    c-0.001,0-0.898,0.093-1.215,0.291C55.419,75.528,57.493,73.457,56.338,73.996z"
         id="path3420" /><linearGradient
         id="SVGID_12_"
         gradientUnits="userSpaceOnUse"
         x1="40.9434"
         y1="92.0366"
         x2="41.0518"
         y2="92.0366"><stop
           offset="0.1065"
           style="stop-color:#F79227"
           id="stop3423" /><stop
           offset="1"
           style="stop-color:#A91F23"
           id="stop3425" /></linearGradient><path
         fill="url(#SVGID_12_)"
         d="M40.943,92.055c0.061-0.009,0.108-0.037,0.108-0.037S41.01,92.032,40.943,92.055z"
         id="path3427" /><linearGradient
         id="SVGID_13_"
         gradientUnits="userSpaceOnUse"
         x1="13.9712"
         y1="60.2002"
         x2="19.1938"
         y2="60.2002"><stop
           offset="0.1065"
           style="stop-color:#F79227"
           id="stop3430" /><stop
           offset="1"
           style="stop-color:#A91F23"
           id="stop3432" /></linearGradient><path
         fill="url(#SVGID_13_)"
         d="M18.615,59.421c0.192-0.262,0.385-0.524,0.579-0.789c0,0.001-0.697-0.874-0.963-0.99    c-0.267-0.114-1.063,0.75-1.571,0.909c-0.114,0.037-0.277,0.089-0.47,0.147c-0.767,1.34-1.507,2.696-2.218,4.07    c0.074-0.098,0.15-0.201,0.236-0.314C15.224,61.101,18.396,59.501,18.615,59.421z"
         id="path3434" /><linearGradient
         id="SVGID_14_"
         gradientUnits="userSpaceOnUse"
         x1="17.5923"
         y1="54.4385"
         x2="28.4287"
         y2="54.4385"><stop
           offset="0.1065"
           style="stop-color:#F79227"
           id="stop3437" /><stop
           offset="1"
           style="stop-color:#A91F23"
           id="stop3439" /></linearGradient><path
         fill="url(#SVGID_14_)"
         d="M19.935,55.339c-0.464,0.365-0.708,0.651-0.976,0.843c-0.268,0.192,0.63,0.302,1.189,0.008    c0.56-0.289,2.769-0.649,1.99-0.275c-0.78,0.373-1.365,0.878-1.124,0.896c0.241,0.021,1.36-0.567,2.164-0.853    c0.802-0.284,1.197-0.632,1.615-0.886c0.418-0.25,2.058-0.751,2.058-0.753c0.522-0.64,1.048-1.287,1.578-1.941    c-0.535,0.133-1.069,0.265-1.603,0.395c0,0-0.024-0.83-0.396-0.692c-0.372,0.141-0.841,1.256-0.878,1.788    c-0.038,0.535-1.715,0.52-1.715,0.518c0.296-0.209,0.593-0.419,0.89-0.632c-0.634,0.023-1.268,0.044-1.903,0.062    c0.261-0.229,0.522-0.461,0.783-0.693c-0.09,0.079-0.8,0.687-1.049,0.581c-0.268-0.114,0.138-1.097,0.139-1.098    c-0.001,0.001-0.817,0.609-1.43,0.716c-0.611,0.111-1.03,0.361-1.765,0.612c-0.305,0.104-0.491,0.24-0.676,0.394    c-0.418,0.658-0.83,1.321-1.234,1.988c0.513-0.352,1.287-0.953,1.588-1.132C19.597,54.94,20.4,54.975,19.935,55.339z"
         id="path3441" /><linearGradient
         id="SVGID_15_"
         gradientUnits="userSpaceOnUse"
         x1="14.6338"
         y1="60.8535"
         x2="27.3804"
         y2="60.8535"><stop
           offset="0.1065"
           style="stop-color:#F79227"
           id="stop3444" /><stop
           offset="1"
           style="stop-color:#A91F23"
           id="stop3446" /></linearGradient><path
         fill="url(#SVGID_15_)"
         d="M27.315,60.867c0.492-0.566-1.974,0.222-1.965-1.063c0.006-1.276,1.244-3.442,1.247-3.447    c0.292-0.107,0.354-0.536,0.354-0.536c-0.538,0.198-1.074,0.393-1.61,0.586c0.078,0.446,0.155,0.889,0.231,1.33    c0,0-0.347-0.477-0.974-0.457c-0.627,0.023-1.514,1.243-1.268,2.245c0.008,0.034,0.015,0.057,0.022,0.084    c-0.105-0.277-0.332-0.69-0.639-0.367c-0.332,0.349,0.037-0.809-0.162-0.342c-0.198,0.466-0.964,0.53-1.632,0.357    c-0.67-0.174-0.65,0.219-1.609,0.434c-0.96,0.214-1.13,0.467-2.065,0.763c-0.936,0.294-1.128,0.45-1.387,1.213    c-0.258,0.761,1.058,0.746,0.34,0.965c-0.716,0.218-1.214,0.655-0.904,0.658c0.314,0.013,3.527-0.403,3.526-0.411    c0,0-0.927,0.295-1.998,0.622c-1.07,0.328-2.286,0.686-2.181,1.602c0.104,0.919,1.853,0.025,1.854,0.022    c0.096,0.255,0.191,0.509,0.286,0.763c0-0.001,0.544-0.253,1.959-0.692c1.415-0.438,2.581-1.584,2.871-1.969    c0.288-0.386,0.354,0.173,1.6,0.231c1.247,0.056,0.923-0.313,2.136-0.733c1.215-0.424-0.098-0.735,0.116-0.81    C25.676,61.84,26.823,61.436,27.315,60.867z"
         id="path3448" /><linearGradient
         id="SVGID_16_"
         gradientUnits="userSpaceOnUse"
         x1="28.9771"
         y1="116.9404"
         x2="38.502"
         y2="116.9404"><stop
           offset="0.1065"
           style="stop-color:#F79227"
           id="stop3451" /><stop
           offset="1"
           style="stop-color:#A91F23"
           id="stop3453" /></linearGradient><path
         fill="url(#SVGID_16_)"
         d="M38.502,117.419c0,0-1.634-0.724-3.726-1.229c-2.086-0.505-2.097-0.087-2.653-0.34    c-0.554-0.251-0.509-0.333-1.313-0.034c-0.805,0.3-1.479,1.041-1.703,1.447c-0.225,0.406-0.089,0.639-0.089,0.639    c0.188-0.055,1.441-1.165,1.839-1.21s0.354,0.513,0.861,0.368c0.506-0.145,1.243-0.217,1.589,0.026    c0.348,0.244,0.939-0.335,0.939-0.335s0.57,0.525,0.433,0.771c-0.136,0.244,0.716,0.074,0.717,0.074c0,0,0.149,0.507-0.025,0.625    C35.194,118.34,37.582,118.157,38.502,117.419z"
         id="path3455" /><linearGradient
         id="SVGID_17_"
         gradientUnits="userSpaceOnUse"
         x1="1.7754"
         y1="120.959"
         x2="5.7505"
         y2="120.959"><stop
           offset="0.1065"
           style="stop-color:#F79227"
           id="stop3458" /><stop
           offset="1"
           style="stop-color:#A91F23"
           id="stop3460" /></linearGradient><path
         fill="url(#SVGID_17_)"
         d="M4.727,122.313c-0.66-0.161-0.767-1.244-1.142-2.099c-0.376-0.856-1.095-0.81-1.435-1.531    c-0.133-0.281-0.255-0.525-0.375-0.733c0.032,0.784,0.072,1.566,0.12,2.346c0.124,0.032,0.231,0.1,0.325,0.248    c0.331,0.519,0.33,0.518,0.417,0.798c0.086,0.279,0.196,1.012,0.196,1.012c0.609,0.264,1.213,0.527,1.811,0.791    c0.002,0.002,1.031,1.414,1.099,0.536C5.813,122.804,5.386,122.478,4.727,122.313z"
         id="path3462" /><linearGradient
         id="SVGID_18_"
         gradientUnits="userSpaceOnUse"
         x1="1.6812"
         y1="92.9951"
         x2="56.5415"
         y2="92.9951"><stop
           offset="0.1065"
           style="stop-color:#F79227"
           id="stop3465" /><stop
           offset="1"
           style="stop-color:#A91F23"
           id="stop3467" /></linearGradient><path
         fill="url(#SVGID_18_)"
         d="M29.605,129.577c-0.172-0.149-0.536-0.689-0.299-0.708c0.237-0.02,0.252-0.023,0.598,0.224    c0.346,0.25,0.476,0.362,0.857,0.503c0.381,0.141,0.786,0.193,0.668-0.157c-0.116-0.349-0.228-0.566-0.087-1.201    c0.139-0.635-0.174-1.271-0.134-1.578c0.042-0.306,0.024-0.809,0.024-0.809c-0.078-0.271-0.274-0.564-0.464-0.807    c-0.228-0.289-0.446-0.502-0.446-0.502c0,0.002-0.43-0.318-1.664,0.087c-1.236,0.405-1.356,0.833-1.822,0.726    c-0.061-0.015-0.123-0.015-0.187-0.007c-0.351,0.05-0.705,0.378-0.648,0.147c0.012-0.047,0.038-0.114,0.089-0.217    c0.337-0.684,0.287-0.182,0.439-1.006c0.15-0.822-0.064-0.564,0.176-1.412c0.117-0.411,0.19-0.569,0.212-0.71    c0.023-0.149-0.015-0.281-0.126-0.671c-0.217-0.759-0.135-0.973,0.029-1.408c0.164-0.434,0.625-1.335-0.528-1.002    c-1.153,0.334-2.905,0.792-2.664,1.642c0.243,0.846,0.236,1.331-0.122,1.776c-0.358,0.444-0.474,0.722-0.333,0.875    c0.14,0.152,0.121,0.596-0.456,0.279c-0.575-0.314-0.853,0.594-1.756,0.865c-0.905,0.271-0.551-0.566-1.187-0.377    c-0.636,0.19-0.475,0.24-0.926-0.309c-0.451-0.548-1.123-0.642-1.406-1.631c-0.281-0.989-0.355-2.623-0.524-3.544    c-0.169-0.923,0.196-1.028,0.138-1.399c-0.016-0.097-0.025-0.208-0.033-0.33c-0.021-0.344-0.026-0.763-0.1-1.137    c-0.1-0.506-0.218-0.912,0.649-1.493c0.864-0.583,0.638-0.179,0.965-0.901c0.328-0.722-0.664-0.59,0.786-0.996    c1.444-0.405,1.263-0.354,1.801-0.506c0.538-0.152,0.716-0.54,1.12-0.316c0.404,0.223,0.731,0.518,1.117,0.02    c0.387-0.495,0.155-0.961,0.155-0.961s-0.639-0.542,1.067-0.643c1.705-0.101,1.408-1.131,1.957-0.562    c0.547,0.566,0.827,0.873,1.138,0.444c0.311-0.428,0.132-1.053,0.653-0.576c0.522,0.477,1.285,0.448,1.254,0.844    c-0.031,0.394,0.025,0.426,0.249,1.037c0.223,0.609,0.415,1.276,0.963,1.839c0.548,0.564,1.041,1.432,1.353,0.332    c0.312-1.104,0.42-0.556,0.011-1.981c-0.408-1.425-0.906-2.49-0.944-2.625c-0.037-0.136-1.003-1.302,0.185-2.779    c1.191-1.48,1.24-1.844,1.921-2.394c0.683-0.554,0.713-0.268,1.03-0.909c0.317-0.643,0.196-0.904,0.471-0.989    c0.273-0.085,0.107-0.333,0.336-0.403c0.23-0.072,0.536-0.417,0.536-0.417c-0.054-0.199-0.109-0.398-0.163-0.599    c-0.2,0.063-0.399,0.126-0.599,0.188c0.227-0.205,0.454-0.41,0.682-0.616c-0.082-0.175-0.162-0.351-0.243-0.527    c0,0-0.749,0.185-0.578,0.081c0.171-0.104,0.733-0.432,0.645-0.759c-0.087-0.324-0.325-1.212-0.325-1.212    c0,0.001-0.282-2.001,0.177-0.464c0.459,1.532,0.332,2.174,0.788,1.068c0.458-1.111,0.196-1.54,0.195-1.539    c0.172,0.013,0.344,0.025,0.517,0.038c-0.001,0.002,0.837-1.453,0.737-2.043c-0.101-0.587-0.22-0.443,0.736-0.92    c0.958-0.477,1.34-1.027,1.724-1.158c0.289-0.099,0.745-0.255,0.952-0.327c-0.15,0.021-0.379-0.083-0.113-1.122    c0.373-1.456,0.643-1.876,1.292-2.267c0.651-0.392,0.716-1.008,1.311-1.224c0.187-0.067,0.377-0.125,0.546-0.182    c0.374-0.125,0.653-0.246,0.604-0.452c-0.041-0.17,0.041-0.35,0.204-0.524c0.125-0.133,0.298-0.267,0.508-0.392    c0.48-0.286,0.816-0.738,1.161-0.922c0.345-0.182-1.101,0.741-1.471,1.692c-0.372,0.952,0.258,1.965,0.794,1.015    c0.539-0.956,0.438-0.921,1.101-1.164c0.664-0.244,1.135-0.856,1.602-1.03c0.465-0.171,1.392-1.071,1.604-1.151    c0.21-0.079,0.666-0.583,1.143-1.267c0.478-0.687,0.139-0.894-0.381-0.639c-0.52,0.257,0.063-0.979-0.15-0.899    c-0.213,0.082-0.805,0.76-0.774,1.14s-0.495,0.579-0.639,0.689c-0.146,0.11-0.593,0.391-1.083,0.463    c-0.492,0.075-1.299,0.212-1.331-0.167c-0.032-0.375-0.176-0.992,0.138-1.335c0.314-0.344,0.326-0.292,0.553-0.773    c0.228-0.48,1.069-1.772,0.028-1.372c-1.038,0.397-1.376,0.131-2.227,0.795c-0.849,0.663-1.423,1.496-1.824,1.645    c-0.225,0.084-0.702,0.837-1.133,1.509c-0.257,0.398-0.496,0.767-0.661,0.958c-0.053,0.064-0.103,0.11-0.139,0.131    c-0.332,0.175-0.613-0.109-0.613-0.109s0.271-0.427,0.756-0.881c0.484-0.455,0.574-0.99,1.115-1.468    c0.541-0.483,0.518-0.586,0.834-0.874c0.317-0.288,0.814-0.758,0.814-0.758c0,0,0.473-0.349,0.642-0.583    c0.169-0.236-0.051-0.721,0.359-0.878c0.407-0.154,1.883-0.839,2.525-1.034c0.638-0.188,1.702-0.837,2.034-0.911    c0.331-0.071,1.228-0.483,1.499-0.591s0.419-0.222,1.021-0.987c0.604-0.769,0.442-0.939,1.965-1.671    c1.528-0.736,1.93-0.9,1.946-1.679c0.019-0.783,0.119-1.185-0.108-1.392c-0.228-0.207-0.831,0.403-0.968-0.264    c-0.137-0.668-0.596-0.236-1.148,0.293c-0.553,0.526-0.967,1.115-1.461,1.315c-0.492,0.2-1.303-0.008-0.41-0.551    c0.896-0.546,1.094-0.748,1.668-1.165c0.577-0.417,0.398-0.404,0.932-0.747c0.537-0.343,0.513-0.454-0.37-0.333    c-0.878,0.12-0.6,0.309-1.409,0.156c-0.808-0.154-1.572-0.144-1.509-0.719c0.063-0.579,0.295,0.002,0.433-1.102    c0.139-1.086-1.316-4.391-1.316-4.406c0,0.002-0.647,1.609-1.519,2.53c-0.874,0.926-1.521,1.438-1.667,1.872    c-0.145,0.43-0.418,0.79-0.65,0.202c-0.231-0.589-0.442-0.504-0.666-0.476c-0.223,0.027-1.662,0.551-0.193-0.985    c1.479-1.551,0.739-0.935,0.636-1.461c-0.102-0.531-0.552-0.474-1.03-0.278c-0.479,0.195-0.705-0.095-0.861-0.61    c-0.156-0.514-0.745-0.598-1.564-0.135c-0.817,0.459-1.32,1.046-1.731,0.952c-0.413-0.091-1.736-0.271-1.687,1.055    c0.045,1.32-0.53,1.477-0.421,2.003c0.109,0.523,0.255,0.963-0.253,1.161c-0.511,0.199-1.799,1.562-0.91,2.143    c0.886,0.579,0.949,0.615,0.88,1.306c-0.061,0.688-0.354,2.496-3.51,4.463c0,0.003-0.101,1.614,0.097,2.229    c0.198,0.619,0.112,0.706-0.344,1.211c-0.456,0.504-0.26,0.887-0.788,1.071c-0.527,0.185-0.642,0.564-0.901-0.08    c-0.261-0.646-0.42-0.022-0.455-0.807c-0.034-0.788-0.463-0.408,0.152-1.313c0.618-0.91-0.041-0.389,0.337-1.218    c0.379-0.833,0.39-1.25,0.146-1.163c-0.246,0.091-2.407,0.672-2.404,0.668c0,0-0.424-0.673-1.191-0.411    c-0.767,0.265-1.583-0.937-2.541-0.62c-0.958,0.319-1.727,0.746-1.727,0.746c-0.001,0.001,0.527-1.178,0.361-1.844    c-0.168-0.666-1.246-0.194-1.245-0.195c-0.006,0.036,1.792-5.463,4.569-6.49c0.443-0.155,1.368-1.51,0.362-1.213    c-1.006,0.297,0.61-0.603,1.148-0.864c0.535-0.261,0.308-0.305,1.059-0.582c0.753-0.28-0.323,0.508,0.951-0.612    c1.28-1.13,1.528-1.295,1.462-1.596c-0.065-0.305-0.915,0.349-1.448,0.154c-0.534-0.193-0.776-0.301-0.776-0.301    c0,0,0.657-0.246,1.077-0.339c0.419-0.092,0.838-0.187,1.131-0.364c0.293-0.18,0.281,0.024,0.369-0.606    c0.088-0.632,0.011-0.738,0.578-0.957c0.566-0.22,0.618-0.507,1.236-0.482c0.619,0.025-0.038-0.184,0.881-0.347    c0.92-0.162-0.055,0.023,1.124-0.849c1.182-0.878,1.803-0.927,1.576-1.513c-0.226-0.59-1.417,0.027-0.522-0.951    c0.897-0.982,1.388-0.839,1.196-1.245c-0.19-0.405-1.139-0.576-1.404-0.469c-0.266,0.108-0.606-0.172-1.167,0.472    c-0.56,0.642-0.462,1.431-0.726,1.811c-0.265,0.379-0.629,0.252-0.997,0.942c-0.368,0.69-0.705,0.686-1.066,1.1    c-0.362,0.411-0.026,0.417-0.361,0.411c-0.335-0.004-0.864-0.408-0.207-0.734c0.658-0.324,1.388-0.609,0.766-1.187    c-0.621-0.577-1.182-0.845-1.582-0.067c-0.399,0.773-0.693,1.225-0.797,0.992c-0.104-0.229-0.308-1.738-0.524-1.173    c-0.217,0.566-1.039,0.88-1.469,1.454c-0.429,0.573-1.142,0.838-1.429,1.284c-0.285,0.445-0.606,0.968-0.853,1.326    c-0.246,0.359-0.07,0.896-0.271,0.968c-0.202,0.072-0.411,0.815-0.581,0.076c-0.17-0.739-0.364-0.872-0.867-0.692    c-0.503,0.18-1.205,0.427-1.455,0.515s-0.401,0.141-0.97,0.47c-0.57,0.331-1.371,0.8-1.371,0.8c0,0-0.492-0.898-1.44-0.584    c-0.948,0.313-1.527,0.367-1.846,0.801c-0.318,0.437-0.701,0.82-0.688,1.275c0.012,0.457,0.057,1.029-0.237,0.925    c-0.295-0.103-0.211-0.39-0.587-0.798c-0.378-0.409-0.196-0.529-0.991-0.286c-0.795,0.25-3.115,1.383-3.115,1.377    c0,0-0.433-0.201,0.511-0.671c0.944-0.469,1.11-1.64-0.392-1.202c-1.5,0.433-1.73,0.952-2.204,0.625    c-0.211-0.147-0.398-0.208-0.592-0.241C5.471,80.553,1.681,96.53,1.681,113.386c0,0.577,0.005,1.152,0.015,1.726    c0.433,0.266,0.422,0.751,0.653,1.333c0.291,0.736,0.399,1.62,0.813,1.862c0.413,0.243,0.933-0.052,1.063,0.367    c0.13,0.418,0.862,0.82,1.235,0.964c0.374,0.146-0.021,0.107,0.313,0.666c0.334,0.557,0.625,0.074,1.259,0.743    c0.638,0.669,2.292,1.033,2.583,2.039c0.293,1.006,0.367,1.084,0.208,1.629c-0.16,0.549-0.57,0.975-0.012,1.253    c0.561,0.279,2.189,1.225,2.677,1.122c0.491-0.103,1.395-0.184,1.394-0.184c0.002,0,1.86,0.617,2.607,0.781    c0.75,0.164,0.473,0.25,1.262,0.203c0.789-0.045,1.893,0.357,2.007-0.122s0.501-1.042,0.993-1.044    c0.492-0.002,1.718,1.055,1.994,1.17c0.059,0.025,0.178,0.068,0.336,0.123c0.331,0.113,0.834,0.264,1.334,0.342    c0.397,0.063,0.79,0.078,1.089-0.01c0.852-0.254,0.558,0.081,1.409-0.17c0.209-0.063,0.341-0.055,0.429-0.006    c0.055,0.031,0.092,0.078,0.121,0.135c0.111,0.219,0.09,0.585,0.419,0.726c0.552,0.234,1.292,0.618,1.498,0.658    c0.021,0.004,0.043,0.03,0.067,0.068C29.53,129.749,29.747,129.701,29.605,129.577z"
         id="path3469" /><linearGradient
         id="SVGID_19_"
         gradientUnits="userSpaceOnUse"
         x1="80.3735"
         y1="210.7446"
         x2="80.4194"
         y2="210.7446"><stop
           offset="0.1065"
           style="stop-color:#F79227"
           id="stop3472" /><stop
           offset="1"
           style="stop-color:#A91F23"
           id="stop3474" /></linearGradient><path
         fill="url(#SVGID_19_)"
         d="M80.407,210.717C80.31,210.648,80.462,210.899,80.407,210.717L80.407,210.717z"
         id="path3476" /><linearGradient
         id="SVGID_20_"
         gradientUnits="userSpaceOnUse"
         x1="29.5688"
         y1="169.9023"
         x2="97.4609"
         y2="169.9023"><stop
           offset="0.1065"
           style="stop-color:#F79227"
           id="stop3479" /><stop
           offset="1"
           style="stop-color:#A91F23"
           id="stop3481" /></linearGradient><path
         fill="url(#SVGID_20_)"
         d="M90.521,211.971c-2.326-1.885-1.248-1.377-2.628-2.193c-1.385-0.824-2.28-1.352-1.562-1.71    c0.721-0.354,0.784,0.014,0.492-1.207c-0.292-1.216-0.532-1.534-0.102-1.792c0.431-0.26,0.792,0.402,0.237-1.188    c-0.553-1.589-1.014-1.412-1.675-1.257c-0.66,0.154-1.331,0.09-1.974-0.821c-0.642-0.913-0.786-1.869,0.008-2.192    s0.685-1.189,0.563-1.534c-0.121-0.343-0.96-0.325-0.439-1.243c0.523-0.913,1.152-1.17,0.332-1.456    c-0.822-0.289-1.892-0.01-2.147-0.55c-0.258-0.541-2.274-1.485-0.795-1.689c1.484-0.196,2.334,0.527,2.545-0.159    c0.213-0.687,0.499-0.803-0.202-1.478c-0.7-0.676-2.099-1.669-1.483-1.769c0.607-0.103,3.84-0.089,4.363-1.261    c0.511-1.179,0.452-1.72,0.165-2.512c-0.288-0.793-0.604-0.55-1.406-1.281c-0.802-0.732,0.758-1.047-0.44-1.392    c-1.197-0.345-2.083-0.236-2.337-0.755c-0.088-0.177-0.071-0.263,0.04-0.296c0.215-0.066,0.785,0.059,1.682,0.096    c1.359,0.055,1.8,0.893,2.833,0.379c1.039-0.509,1.732-0.503,1.963-1.194c0.006-0.015,0.009-0.038,0.015-0.055    c0.198-0.739-0.119-2.695-0.311-3.584c-0.198-0.911,0.012-2.047,0.013-2.047c0,0,0.667,0.28,0.609,1.076s0.319,0.106,0.42-1.148    c0.103-1.254-0.181-1.627,0.537-2.388c0.719-0.762,0.794-0.96-0.126-1.878c-0.92-0.917-2.297-1.735-1.792-2.477    c0.506-0.743,1.282-2.138,1.691-2.61c0.401-0.471,1.813-2.018,2.829-1.94c1.004,0.076,3.226,0.039,3.236-0.152    c0.006-0.192-0.969-0.915,0.026-0.959c0.999-0.044,0.914-0.486,0.912-0.486c-0.086-0.572-0.172-1.143-0.258-1.713    c-0.001,0,0.451-1.105,0.26-1.604c-0.192-0.5-0.307-1.005-0.571-1.689c-0.265-0.686,0.412-0.594,0.13-1.53    c-0.282-0.942-1.652-4.654-2.182-5.993c-0.53-1.344,0.568-0.605,0.929-0.313c0.358,0.29-0.154-0.181,0.12-1.143    c0.273-0.963-0.063-1.189,0.087-1.64c0.151-0.451,0.613-0.737,1.343-1.426c0.731-0.685,1.345-1.495,0.756-2.96    c-0.588-1.462-1.046-2.173-1.793-2.975c-0.745-0.801,0.203-1.585-1.012-1.459c-1.206,0.128-0.754,0.636-2.567,0.023    c-1.804-0.608-2.643-1.121-3.122-1.312c-0.479-0.191-2.107-1.089-2.796-1.064c-0.692,0.025-0.986,0.062-1.718,0.152    s-1.289,0.398-1.882,0.234c-0.59-0.167-1.827-0.833-2.799,0.411c-0.15,0.194-0.257,0.344-0.335,0.463    c-0.075-0.352-0.2-0.9-0.338-1.258c-0.216-0.557-0.292-0.549-1.622-0.834c-1.326-0.284-2.112-0.517-2.771-0.597    c-0.655-0.077-1.158,0.227-1.358,0.6c-0.071,0.135-0.168,0.292-0.263,0.443c0.138-0.285,0.222-0.64,0.011-0.924    c-0.421-0.569-0.916-0.436-1.361-0.369c-0.451,0.068-1.5,0.114-1.498,0.114c0-0.001-0.827-0.438-0.176-0.821    c0.653-0.385,0.741-0.513,0.476-1.036c-0.262-0.521,0.147-0.138-0.931-0.526c-1.069-0.386-0.753-0.604-1.155-1.153    c-0.401-0.546-1.177-1.409-1.176-1.408c-0.177-0.063-0.354-0.123-0.529-0.184c-0.071-0.023-0.142-0.048-0.213-0.071    c-0.01-0.005-2.53-0.97-3.043-0.866c-0.062,0.012-0.131,0.018-0.202,0.021c-0.534,0.03-1.303-0.117-2.006,0.02    c-0.799,0.153-1.359,0.264-1.359,0.264s-0.047-0.029-0.127-0.076c-0.352-0.207-1.326-0.748-1.671-0.635    c-0.426,0.135-1.404-1.674-2.193-1.449c-0.026,0.008-0.052,0.012-0.079,0.02c-0.773,0.186-1.638-0.018-1.637-0.018    c-0.001,0,0.772-0.742,0.355-0.963c-0.417-0.223-0.388,0.031-1.185-0.155s-2.004-0.321-1.126-0.521    c0.882-0.201,0.628-0.298,0.627-0.298c-0.796,0.078-1.584,0.154-2.361,0.232c0,0-0.305,0.738-0.678,0.926    c-0.373,0.188-0.893-0.406-1.589-0.24c-0.695,0.164-0.637,0.506-1.277,0.658c-0.638,0.152-0.768-0.424-0.768-0.424    s-0.298-0.435-0.636-0.352c-0.342,0.084-1.161,0.285-1.496,0.369c-0.336,0.083-1.354,1.09-0.75,1.546    c0.605,0.458,1.137,0.99,0.657,1.106c-0.479,0.117-1.048,0.104-1.19-0.52c-0.144-0.621,0.438-1.221,0.022-1.567    c-0.21-0.177-0.32-0.288-0.348-0.381c-0.026-0.091,0.026-0.167,0.145-0.271c0.241-0.211,0.515-0.482,0.515-0.482    s0.283-0.572-0.338-0.264c-0.62,0.307-0.619,0.307-0.815,0.656c-0.197,0.351-0.299,0.678-0.769,0.797    c-0.469,0.121-0.551,0.342-0.526,0.586c0.024,0.244-0.166,0.443-0.166,0.443c0,0-0.397-0.8-0.591-0.45    c-0.193,0.351-0.967,0.603-0.812,1.113c0.155,0.511,0.384,1.26,0.384,1.26c-0.001,0-1.269,0.43-1.041,1.181    c0.228,0.752-0.37,1.418-0.37,1.418c0-0.001,0.602-1.635-0.382-1.93c-0.981-0.295-0.898-0.519-1.617-0.276    c-0.714,0.245-0.568,0.908-1.068,1.045c-0.175,0.048-0.273,0.129-0.376,0.192c-0.192,0.119-0.4,0.174-1.14-0.179    c-1.011-0.48-1.042-0.396-1.16-0.795c-0.163-0.09-0.623-0.327-0.794-0.278c-0.21,0.06-0.27-0.09-0.673,0.026    c-0.38,0.108-1.004,0.099-1.072,0.229c0.211,0.522,0.561,1.481,1.349,1.479c1.073-0.003,0.997,0.07,1.39,0.413    c0.394,0.346,0.588,0.342,1.087,0.203c0.499-0.139,1.324-0.01,1.449,0.415c0.124,0.426,1.23,0.484,0.851-0.128    c-0.199-0.32-0.377-0.351-0.459-0.372c-0.011-0.014-0.026-0.034-0.041-0.054c0.014-0.032,0.052-0.085,0.122-0.184    c0.313-0.441,0.304-0.64,0.504-0.795s0.771-0.562,1.082-0.188c0.311,0.373,0.453,0.846,0.524,1.082    c0.07,0.235,0.604,0.352,0.796,0.659c0.19,0.3,0.958,3.16,1.02,3.362c0.059,0.194,0.356,1.169-0.194,1.521    c-0.548,0.353-0.797,0.363-0.588,0.893c0.211,0.531,0.4,0.323,0.211,0.531c-0.021,0.022-0.041,0.05-0.059,0.08    c-0.151,0.245-0.241,0.692-0.45,0.746c-0.234,0.062-0.826,0.105-0.4,0.854c0.425,0.753,0.096,1.003,0.001,1.19    c-0.097,0.188-0.254,0.338,0.018,1.086c0.272,0.749,0.484,1.637,1.085,1.259c0.603-0.376,0.311,0.529,0.31,0.866    c0,0.148-0.31,0.248-0.274,0.379c-0.136,0.254-0.2,0.775,0.213,2.17c0.094,0.314-0.261,1.209,0.634,1.265    c0.896,0.06,1.441,0.321,2.256,1.281c0.816,0.963,1.628,1.887,2.138,3.019c0.505,1.13,1.771,1.927,2.271,2.483    c0.498,0.557,0.9,1.141,0.9,1.141c0.001,0,0.457,0.942,1.69,1.542c1.235,0.602,2.031,1,2.72,1.233    c0.688,0.234,1.752-0.104,2.342,0.475c0.586,0.576,1.37,1.381,1.733,1.44c0.075,0.012,0.154,0.049,0.231,0.098    c0.295,0.181,0.576,0.526,0.597,0.319c0.015-0.284,2.321,5.11,2.962,6.972c0.612,1.791,2.909,7.449,2.919,7.475    c-0.004-0.008,1.611,2.939,1.025,2.634c-0.589-0.311,0.568,0.958,0.892,1.544s0.414,0.493,0.834,1.715    c0.421,1.224,1.174,3.059,1.39,3.684c0.212,0.617,1.134,3.658,1.136,3.664c0,0-0.851,0.043,0.053,1.059    c0.902,1.016,2.103,1.423,2.341,2.294c0.236,0.867-0.241,1.846,0.575,2.582c0.816,0.733,0.926,1.97,1.332,1.865    c0.404-0.104,0.166,0.666,0.715,1.716c0.55,1.049,0.932,1.423,1.064,1.07c0.13-0.355-0.403-1.168-0.737-1.952    c-0.333-0.783-0.606-1.576-0.242-1.434c0.365,0.146,0.972,1.169,1.071,1.457c0.1,0.288,0.518,1.128,0.935,1.969    c0.418,0.842,0.714,1.88,0.714,1.881c-0.043,0.305-0.086,0.611-0.129,0.919c0,0-0.706-0.202-0.528,0.315    c0.177,0.515,0.326,1.694,0.326,1.695c0,0,1.008-0.221,1.382-0.25c0.373-0.028,0.846-0.326,0.921-0.105    c0.076,0.219,0.049,1.439-0.241,1.529c-0.289,0.086-0.262,1.474-0.261,1.475c0,0.002,1.171,1.362,1.586,1.638    c0.416,0.278,1.605,1.121,1.731,1.49c0.004,0.01,0.004,0.018,0.008,0.025c0.058,0.039,0.202,0.191,0.534,0.615    c0.918,1.175,1.527,1.452,1.527,1.452s0.239-0.245,0.646,0.188c0.404,0.431,1.13,0.668,1.13,0.668s0.206,0.413,0.428,0.499    c0.223,0.083,0.839,0.189,0.839,0.189c0.001,0.003,1.534,0.905,1.762,0.821c0.23-0.084,1.095-0.387,1.651-0.268    c0.557,0.122,1.459,0.121,1.805,0.003c0.287-0.1,1.342-0.401,1.7-0.502c0.076-0.018,0.124-0.03,0.124-0.03s0.455-0.375,0.631-0.43    c0.176-0.056,0.622-0.271,0.937-0.295c0.316-0.022,0.964-0.22,0.964-0.22c0.322-0.269,0.646-0.532,0.973-0.795    C95.726,212.615,92.829,213.826,90.521,211.971z"
         id="path3483" /><linearGradient
         id="SVGID_21_"
         gradientUnits="userSpaceOnUse"
         x1="96.2583"
         y1="201.9585"
         x2="97.7192"
         y2="201.9585"><stop
           offset="0.1065"
           style="stop-color:#F79227"
           id="stop3486" /><stop
           offset="1"
           style="stop-color:#A91F23"
           id="stop3488" /></linearGradient><path
         fill="url(#SVGID_21_)"
         d="M97.718,201.318c0.003-0.028,0.001-0.063-0.067-0.068c-0.07-0.005-0.051-0.116-0.051-0.116    c0,0.001-0.147,0.016-0.157,0.035c-0.012,0.02-0.021,0.077-0.037,0.08c-0.016,0.003-0.042,0.023-0.023,0.048    c0.019,0.025-0.026,0.107-0.026,0.107s-0.098,0.011-0.146,0c-0.05-0.008-0.083-0.071-0.092-0.086    c-0.011-0.017-0.098-0.072-0.131-0.072c-0.035,0-0.119,0.02-0.14,0.023c-0.021,0.003-0.053,0.061-0.026,0.106    c0.026,0.047-0.018,0.083-0.02,0.13c-0.003,0.045,0.046,0.088-0.164,0.064c-0.209-0.021-0.188-0.155-0.214-0.151    c-0.003,0.008-0.007,0.016-0.009,0.023c0,0-0.14,0.007-0.154,0.009c-0.016,0.003,0.058,0.127,0.058,0.127    c0.03,0.039,0.061,0.078,0.091,0.117c0.053,0.024,0.105,0.047,0.159,0.071c0.051,0.025,0.104,0.05,0.155,0.075    c0.07,0.008,0.141,0.017,0.211,0.024c0,0-0.007,0.113-0.025,0.11c-0.017-0.001-0.282,0.104-0.308,0.108    c-0.026,0.005,0.007,0.148,0.007,0.148c0.006,0.054,0.013,0.108,0.02,0.163c-0.017,0.014-0.033,0.027-0.049,0.04    c0,0-0.026,0.105-0.042,0.107c-0.016,0.003-0.172,0.086-0.172,0.086c0.012,0.036,0.024,0.072,0.037,0.108c0.042,0,0.085,0,0.127,0    c0.013,0.015,0.025,0.031,0.039,0.046c0,0,0.109-0.013,0.136-0.029s0.049-0.057,0.049-0.057c0.041,0,0.081-0.001,0.122-0.002    c0,0,0.086,0.087,0.1,0.079c0.014-0.007,0.096-0.017,0.111-0.034c0.017-0.021-0.009-0.063-0.014-0.079    c-0.006-0.017,0.069-0.063,0.092-0.096c0.023-0.031-0.033-0.08-0.075-0.091c-0.043-0.009-0.121-0.022-0.149-0.024    c-0.028,0-0.024-0.072-0.024-0.072c0.021-0.026,0.042-0.055,0.062-0.083c0,0,0.228-0.009,0.262-0.026    c0.033-0.018,0.226-0.067,0.254-0.083c0.028-0.016,0.04-0.138,0.033-0.17c-0.005-0.032-0.049-0.161-0.064-0.204    c-0.013-0.043,0.07-0.067,0.129-0.094c0.058-0.028,0.076-0.126,0.087-0.146c0.01-0.02,0.005-0.137,0.005-0.137    S97.718,201.347,97.718,201.318z"
         id="path3490" /><linearGradient
         id="SVGID_22_"
         gradientUnits="userSpaceOnUse"
         x1="97.7134"
         y1="201.7803"
         x2="99.2896"
         y2="201.7803"><stop
           offset="0.1065"
           style="stop-color:#F79227"
           id="stop3493" /><stop
           offset="1"
           style="stop-color:#A91F23"
           id="stop3495" /></linearGradient><path
         fill="url(#SVGID_22_)"
         d="M99.079,201.269c-0.016-0.03-0.031-0.06-0.046-0.089c0.061-0.017,0.122-0.032,0.183-0.05    c-0.016-0.048-0.031-0.095-0.047-0.144c-0.013-0.028-0.026-0.056-0.039-0.084c-0.053,0.008-0.105,0.016-0.158,0.024    c-0.062-0.009-0.123-0.017-0.184-0.024c-0.014,0.022-0.027,0.044-0.041,0.066c0,0,0.021,0.114,0.025,0.13    c0.006,0.019-0.059,0.084-0.059,0.084c-0.037,0.009-0.074,0.019-0.11,0.027c-0.012-0.035-0.024-0.071-0.036-0.107    c-0.038-0.005-0.076-0.011-0.113-0.016c-0.028-0.073-0.055-0.146-0.083-0.218c-0.126,0.019-0.253,0.038-0.379,0.058    c0.023,0.069,0.046,0.139,0.07,0.208c-0.046,0.009-0.093,0.018-0.138,0.026c0.036,0.092,0.072,0.185,0.107,0.277    c0.042,0.008,0.085,0.017,0.127,0.024c0.022,0.056,0.045,0.11,0.067,0.166c0.017,0.044,0.034,0.089,0.051,0.132    c-0.033,0.004-0.066,0.006-0.1,0.011c-0.033-0.022-0.067-0.042-0.1-0.064c-0.054,0.009-0.107,0.017-0.162,0.025    c-0.007,0.042-0.016,0.082-0.023,0.123c-0.004,0.037-0.008,0.076-0.012,0.114c0,0-0.024,0.062-0.042,0.077    c-0.018,0.012-0.039,0.106-0.039,0.106c-0.024,0.026-0.049,0.053-0.074,0.08c0-0.001-0.024,0.118-0.002,0.113    c0.02-0.003,0.128,0.018,0.149,0.025c0.02,0.009,0.151,0.151,0.165,0.172c0.012,0.022,0.13,0.141,0.167,0.146    c0.036,0.007,0.101-0.039,0.101-0.038c-0.021-0.063-0.041-0.124-0.062-0.187c-0.031-0.007-0.062-0.013-0.092-0.02    c-0.022-0.027-0.044-0.054-0.066-0.08c0.043-0.021,0.087-0.044,0.13-0.066c0.042,0.019,0.084,0.036,0.126,0.054    c0.014-0.02,0.028-0.04,0.042-0.059c-0.02-0.038-0.04-0.076-0.06-0.113c-0.013-0.039-0.025-0.078-0.039-0.117    c0,0,0.179-0.042,0.194-0.044c0.017-0.003,0.037-0.094,0.037-0.094c-0.022-0.051-0.044-0.102-0.067-0.152    c0,0,0.241,0.057,0.274,0.052c0.031-0.005,0.13-0.031,0.18-0.057c0.049-0.023,0.097-0.119,0.128-0.13    c0.03-0.011,0.04-0.069,0.088-0.076c0.048-0.007,0.135-0.06,0.135-0.06c0.012-0.05,0.023-0.1,0.036-0.149    c-0.021-0.039-0.042-0.079-0.063-0.119C99.178,201.246,99.128,201.257,99.079,201.269z"
         id="path3497" /><linearGradient
         id="SVGID_23_"
         gradientUnits="userSpaceOnUse"
         x1="95.9556"
         y1="202.2739"
         x2="96.2837"
         y2="202.2739"><stop
           offset="0.1065"
           style="stop-color:#F79227"
           id="stop3500" /><stop
           offset="1"
           style="stop-color:#A91F23"
           id="stop3502" /></linearGradient><path
         fill="url(#SVGID_23_)"
         d="M96.245,202.247c-0.022-0.005-0.044-0.01-0.066-0.014c-0.008-0.002-0.016-0.004-0.024-0.005    c-0.009-0.025-0.017-0.051-0.025-0.076c-0.018-0.002-0.036-0.005-0.054-0.008c-0.031,0.003-0.062,0.005-0.093,0.008    c0,0,0.01,0.085,0.009,0.102c-0.002,0.019-0.019,0.033-0.031,0.034c-0.011,0.002,0,0.053,0,0.053    c0.027,0.02,0.054,0.04,0.08,0.059c0.022,0.002,0.045,0.004,0.068,0.005c0,0,0.105-0.026,0.117-0.032    c0.01-0.006,0.058-0.036,0.058-0.036c0-0.022,0-0.044,0-0.064C96.271,202.263,96.258,202.254,96.245,202.247z"
         id="path3504" /><linearGradient
         id="SVGID_24_"
         gradientUnits="userSpaceOnUse"
         x1="96.5273"
         y1="201.2197"
         x2="96.6729"
         y2="201.2197"><stop
           offset="0.1065"
           style="stop-color:#F79227"
           id="stop3507" /><stop
           offset="1"
           style="stop-color:#A91F23"
           id="stop3509" /></linearGradient><path
         fill="url(#SVGID_24_)"
         d="M96.527,201.163c0.018,0.028,0.036,0.057,0.053,0.086c0.016,0.016,0.031,0.031,0.047,0.048    c0.015-0.013,0.03-0.025,0.045-0.037c-0.001-0.019-0.003-0.036-0.004-0.055c-0.007-0.021-0.014-0.041-0.021-0.062    C96.607,201.149,96.567,201.156,96.527,201.163z"
         id="path3511" /><linearGradient
         id="SVGID_25_"
         gradientUnits="userSpaceOnUse"
         x1="96.9517"
         y1="200.9707"
         x2="97.2485"
         y2="200.9707"><stop
           offset="0.1065"
           style="stop-color:#F79227"
           id="stop3514" /><stop
           offset="1"
           style="stop-color:#A91F23"
           id="stop3516" /></linearGradient><path
         fill="url(#SVGID_25_)"
         d="M97.038,200.886c-0.029,0.005-0.058,0.009-0.086,0.014c0.01,0.028,0.02,0.059,0.029,0.088    c0,0,0.04,0.065,0.052,0.063c0.011-0.002,0.143,0.008,0.162,0.002c0.018-0.008,0.054-0.066,0.054-0.066    c-0.026-0.018-0.052-0.035-0.079-0.054c-0.025,0.004-0.05,0.008-0.076,0.012C97.075,200.925,97.057,200.906,97.038,200.886z"
         id="path3518" /></g><g
       id="g3520"><linearGradient
         id="SVGID_26_"
         gradientUnits="userSpaceOnUse"
         x1="123.6191"
         y1="56.7842"
         x2="130.3511"
         y2="56.7842"><stop
           offset="0.1065"
           style="stop-color:#F79227"
           id="stop3523" /><stop
           offset="1"
           style="stop-color:#A91F23"
           id="stop3525" /></linearGradient><path
         fill="url(#SVGID_26_)"
         d="M124.776,59.192c0.912,0.327,0.896-0.001,1.772-0.267c0.874-0.267,0.802-0.271,2.044-0.38    c1.243-0.109,0.334-1.881,0.609-2.127c0,0,0.606,0.373-0.161-0.273c-0.768-0.648-1.211-0.809,0.542-0.687    c1.748,0.121,0.028-0.726-0.426-1.021c-0.453-0.295-0.658-0.113-1.83-0.195c-1.174-0.082-0.67,1.14-0.669,1.14    c0,0-0.429,0.234-1.265-0.286c-0.837-0.521-1.04-0.139-1.139,0.906c-0.099,1.045,0.256,0.677,0.926,0.725    c0.668,0.048-0.051,0.456-0.642,0.544c-0.592,0.089-0.938,0.656-0.919,1.115C123.64,58.848,123.866,58.865,124.776,59.192z"
         id="path3527" /><linearGradient
         id="SVGID_27_"
         gradientUnits="userSpaceOnUse"
         x1="191.354"
         y1="159.1211"
         x2="202.0615"
         y2="159.1211"><stop
           offset="0.1065"
           style="stop-color:#F79227"
           id="stop3530" /><stop
           offset="1"
           style="stop-color:#A91F23"
           id="stop3532" /></linearGradient><path
         fill="url(#SVGID_27_)"
         d="M200.92,149.409c-0.966-1.206-0.841-0.553-0.841-0.553s-0.301,1.243-0.328,1.742    c-0.027,0.497-0.265,0.505-0.78,1.184c-0.516,0.682-0.851,0.942-1.288,1.625c-0.439,0.685-1.636,0.555-1.988,1.072    c-0.354,0.516-1.512,0.976-1.956,1.587c-0.445,0.611-0.294,0.773-0.376,1.977c-0.084,1.207,0.152,1.283,0.568,2.312    c0.413,1.031-0.45,0.622-1.105,1.782c-0.657,1.163-0.802,0.903-1.293,1.98c-0.492,1.08,0.157,1.15,0.458,1.494    c0.302,0.347-0.076,0.986-0.306,1.804c-0.229,0.819-0.051,0.632,0.854,1.69c0.902,1.063,1.73-0.056,2.305-0.073    c0.577-0.019,1.375-0.859,1.375-0.858c1.354-3.605,2.662-7.106,3.931-10.517c0.032-0.085,0.063-0.171,0.095-0.256    c-0.1-1.026-0.145-1.617,0.653-1.641c0.798-0.021,0.276-0.685,0.276-0.685c0,0.001-0.304-0.245-0.331-1.171    c-0.03-0.924,0.776,0.315,1.025,0.141c0.245-0.175,0.221-1.186,0.132-2.515C201.907,150.208,201.886,150.621,200.92,149.409z"
         id="path3534" /><linearGradient
         id="SVGID_28_"
         gradientUnits="userSpaceOnUse"
         x1="108.4673"
         y1="133.7427"
         x2="204.3066"
         y2="133.7427"><stop
           offset="0.1065"
           style="stop-color:#F79227"
           id="stop3537" /><stop
           offset="1"
           style="stop-color:#A91F23"
           id="stop3539" /></linearGradient><path
         fill="url(#SVGID_28_)"
         d="M203.821,116.769c0,0-0.691,0.452-1.08,0.752c-0.387,0.302-1,0.23-2.084,0.235    c-1.082,0.006-0.852,0.229-1.706,0.234c-0.856,0.004-0.55,0.531-1.331,0.611c-0.781,0.08-1.33,0.159-1.801,0.162    c-0.472,0.003-0.465-0.602-0.779-0.6c-0.26,0.001-0.407-0.253-0.453-0.469c-0.007-0.047-0.015-0.092-0.014-0.132    c0.002-0.226,0.005-0.604,0.008-1.057c0.004-0.454-0.311-0.754-0.703-1.055c-0.395-0.3-0.392-0.603-0.945-1.208    c-0.551-0.603-1.346-1.36-2.143-1.511c-0.799-0.153-0.077-0.454-1.123-1.822c-1.049-1.37-0.402-0.533-0.649-1.521    c-0.099-0.391-0.207-0.555-0.354-0.665c-0.223-0.167-0.532-0.204-1.026-0.711c-0.816-0.845-0.651-0.539-0.817-0.846    c-0.164-0.306-0.094-1.222-0.098-1.452c-0.002-0.228-0.923-1.998-1.269-2.847c-0.341-0.85-0.903-0.397-0.665-0.625    c0.133-0.124,0.02-0.275-0.152-0.583c-0.145-0.261-0.334-0.632-0.461-1.197c-0.275-1.239-0.876-2.179-1.645-3.05    c-0.77-0.871-0.519-0.711-0.539-1.335c-0.02-0.622-1.383-1.671-1.398-2.065c-0.016-0.391-0.459-1.11-0.283-0.869    c0.176,0.24,0.711,1.195,0.973,1.592s0.096,0.317,1.199,1.198c1.1,0.881,0.322-0.225,0.374-1.083    c0.016-0.262-0.044-0.677-0.141-1.132c-0.224-1.03-0.646-2.258-0.819-2.263c-0.248-0.007-0.416-0.09-1.08-0.108    c-0.665-0.019-0.507-0.172-1.174-0.191c-0.668-0.02-0.52-0.491-1.609-0.523c-1.093-0.033-1.145,0.68-1.977,0.971    c-0.828,0.292-2.334-1.022-2.766-1.119c-0.43-0.092-1.713-0.055-2.061-0.067c-0.244-0.008-0.456-0.211-0.74-0.338    c-0.119-0.054-0.249-0.092-0.401-0.098c-0.519-0.017-1.677-0.618-1.678-0.619c0,0-0.446-0.257-0.999-0.839    c-0.554-0.584-1.32-0.129-1.849-0.148c-0.53-0.02-0.759,0.699-1.187,1.006c-0.428,0.306,0.061,1.291,0.085,1.853    c0.025,0.563-0.347,0.149-0.778,0.456c-0.43,0.308-1.512,0.03-2.068-0.392c-0.557-0.424-0.193-0.33-0.66-0.75    s-1.722-0.225-2.086-0.237c-0.365-0.014-0.545-0.02-0.674-0.836c-0.127-0.817-0.773-1.006-0.773-1.006    c0.001,0-1.47-0.221-2.115-0.247c-0.646-0.025-1.208-0.213-1.671-0.231c-0.253-0.01-0.463-0.264-0.692-0.495    c-0.189-0.192-0.395-0.369-0.647-0.38c-0.56-0.023-0.771-0.526-0.771-0.526s-0.395-0.429-0.324-0.921    c0.07-0.492,0.523-0.72,0.781-1.12c0.258-0.4-0.241-1.084-0.441-1.343c-0.199-0.257,0.592-1.049,0.592-1.049    s-0.811,0.458-0.834,0.043c-0.021-0.415-1.15-0.638-1.152-0.638c-0.4,0.063-0.805,0.127-1.208,0.19    c0.001,0-0.938,0.037-1.222,0.022c-0.284-0.014-1.23,0.022-1.23,0.022c-0.539-0.027-1.08-0.054-1.623-0.082    c-0.002,0-0.85,0.124-2.678,0.283c-1.832,0.158-1.94,0.068-2.233,0.053c-0.292-0.015-0.972,0.119-0.972,0.119    c0,0-1.175,0.107-1.561,0.339c-0.387,0.234-0.475,0.481-0.873,0.461c-0.398-0.021-0.791,0.043-1.581,0.341    c-0.788,0.297,0,0-0.287,0.323c-0.21,0.234-0.317,0.339-0.557,0.338c-0.089,0-0.196-0.014-0.337-0.044    c-0.506-0.109-0.51-0.194-0.816-0.294c-0.307-0.102-0.605-0.031-1.014-0.051c-0.404-0.021-0.914-0.047-1.322-0.067    c-0.409-0.021-1.034-0.394-1.035-0.394c0,0-0.428-0.617-1.15-0.74c-0.724-0.123-0.607,0.308-0.607,0.308s-0.091,0.423-0.186,0.758    c-0.094,0.335-0.495,0.742-0.484,1.167c0.012,0.427-0.819,0.385-1.021,0.715c-0.201,0.334-0.723,0.309-1.347,0.534    c-0.626,0.226-1.154,0.115-1.565,0.694c-0.412,0.58-0.935,0.984-1.035,1.409c-0.1,0.423-0.523,0.576-0.516,1.089    c0.01,0.516,0.234,1.125,0.234,1.125c-0.033,0.227-0.064,0.454-0.096,0.681c0,0-0.852,0.565-0.844,1.165    c0.01,0.601-1.613,0.456-1.614,0.455c0.001,0-1.19,0.47-1.515,0.804c-0.325,0.333-1.201,0.474-1.531,0.548    c-0.005,0-0.009,0.005-0.014,0.006c-0.301,0.103,0.221,1.133-1.522,1.844c-1.774,0.723-1.776,2.114-1.999,2.455    c-0.223,0.342-0.334,0.513-0.784,0.936c-0.451,0.423-0.675,1.288-0.675,1.288c0.001,0-1.131,1.021-1.589,1.71    c-0.457,0.689-0.343,0.341-0.457,0.953c-0.115,0.61,0.23,0.616,0.458,1.055c0.228,0.441,0.116,0.352,0.685,0.535    c0.57,0.183,0.001,1.136,0.001,1.921c0,0.785,0.114,0.438,0.115,1.222c0,0.784-0.227,1.043-0.227,2.005c0,0.3,0,0.504-0.007,0.656    c-0.016,0.33-0.064,0.385-0.222,0.565c-0.227,0.26-1.031,1.481-1.032,1.482c0,0-0.229,0.525-0.229,0.962c0,0.438,0,0.527,0,1.051    c0,0.525,0,0-0.232,0.789c-0.229,0.79,0,0-0.113,0.613c-0.115,0.614,0.804,1.045,0.803,1.045c0,0,0,0,0.061,0.068    c0.057,0.065,0.172,0.194,0.398,0.451c0.458,0.521,1.482,0.247,1.482,0.247c-0.254,0.522,0.375,0.84,0.712,0.969    c0.114,0.044,0.195,0.066,0.195,0.066c0,0,0.451,0.691,0.902,0.944c0.449,0.253,0.336,0.429,1.01,0.853    c0.413,0.261,0.697,0.718,0.854,1.033c0.098,0.194,0.149,0.336,0.149,0.336s-0.003,0.778-0.004,1.036    c0,0.261,0.777,0.676,1.108,0.929c0.33,0.25,0.552,0.332,1.322,0.659c0.185,0.078,0.322,0.158,0.436,0.24    c0.354,0.252,0.434,0.512,0.767,0.764c0.438,0.336,2.384,1.568,2.381,1.567c0.001,0,1.184,0.566,2.034,1.14    c0.85,0.57,1.17,0.22,1.17,0.221c0.09-0.016,0.18-0.031,0.27-0.047c0.302-0.054,0.603-0.105,0.903-0.158    c0.001-0.001,1.065-0.541,1.381-0.549c0.315-0.01,0.743-0.445,1.896-0.477c1.146-0.031,1.458-0.039,2.389-0.064    c0.93-0.025,0.409,0.24,1.022,0.476c0.36,0.138,0.72,0.101,0.958,0.048c0.165-0.038,0.273-0.082,0.273-0.082    c0.344-0.121,0.686-0.242,1.027-0.363c0,0,0.815-0.188,1.122-0.363c0.308-0.176,0.92-0.525,1.423-0.537    c0.503-0.014,0.611-0.43,1.213-0.444c0.601-0.016,0.608-0.513,0.609-0.513c0,0,0.138-0.021,0.341-0.056    c0.401-0.064,1.059-0.171,1.454-0.233c0.023-0.005,0.051-0.008,0.075-0.009c0.578-0.081,1.241-0.022,1.995-0.04    c0.785-0.018,0.682,0.314,1.738,0.947c1.055,0.629,0.181,0.65,0.065,1.393c-0.116,0.742,0.276,0.65,0.953,0.631    c0.679-0.019,1.361-0.365,1.936-0.381c0.577-0.016,1.923-0.54,1.923-0.54c0.005,0.008,0.012,0.015,0.018,0.022    c0.208,0.26,0.417,0.518,0.625,0.775c0,0,0.465,0.313,1.098,1.271c0.447,0.683,0.235,1.095,0.002,1.455    c-0.096,0.146-0.193,0.282-0.25,0.426c-0.139,0.332-0.322,0.847-0.436,1.299c-0.057,0.226-0.098,0.436-0.103,0.597    c-0.019,0.494-0.694,0.925-0.933,2.166c-0.198,1.043,1.364,2.825,2.76,4.062c0.267,0.235,0.53,0.454,0.774,0.642    c0.354,0.271,0.595,0.591,0.77,0.936c0.21,0.417,0.317,0.873,0.388,1.331c0.115,0.782,0.123,1.574,0.352,2.206    c0.475,1.301,1.377,1.425,0.828,1.452c-0.549,0.025-0.308,2.012,0.217,2.318c0.527,0.307,0.574,2.308-0.632,3.893    c-1.035,1.36-2.213,4.503-2.733,6.474c-0.084,0.316-0.151,0.605-0.195,0.846c-0.303,1.722,2.816,7.299,2.799,7.315    c0.004-0.006,0.549,3.675,0.38,5.309c-0.136,1.358,1.071,2.906,1.534,3.698c0.092,0.154,0.157,0.282,0.178,0.371    c0.117,0.542-0.037,2.012,1.018,3.631c1.052,1.622-0.69,3.012,0.305,5.054c0.988,2.051,1.959,1.255,3.477,0.236    c1.518-1.017,2.278-0.092,2.977-0.117c0.701-0.027,2.381-1.05,3.424-1.089c1.041-0.041,0.895-1.757,3.055-2.601    c2.157-0.843,2.563-1.433,3.109-3.334c0.543-1.893,1.797-2.497,3.086-3.477c1.122-0.852,1.161-1.237,0.809-2.403    c-0.051-0.17-0.109-0.354-0.176-0.558c-0.514-1.617,2.956-2.66,2.951-2.66c0.591-0.022,1.089-0.86,1.416-2.654    c0.325-1.792,0.257-2.928-0.658-3.937c-0.917-1.009,0.447-1.324,1.059-1.699c0.615-0.371,1.148-0.825,1.689-1.364    c0.538-0.538,0.75-1.146,1.108-1.503c0.358-0.355,1.794-0.837,2.229-1.195c0.436-0.356,1.292-0.898,1.923-1.766    c0.631-0.865,0.717-0.952,0.536-1.867c-0.185-0.912,0.063-0.925,0.179-2.75c0.115-1.82,0.293-2.148,0.293-2.148    s-0.137-0.392-0.307-0.922c-0.208-0.656-0.465-1.522-0.563-2.144c-0.179-1.128,0.09-1.618-0.208-2.091    c-0.297-0.473-0.434-0.949-0.457-2.067c-0.023-1.086,0.709-0.456,0.785-1.238c0.002-0.021,0.004-0.036,0.006-0.057    c0.042-0.875,0.138-1.193,0.636-1.524c0.498-0.328-0.097-1.417,0.552-1.59c0.541-0.144,1.16-0.992,1.354-1.272    c0.039-0.058,0.063-0.093,0.063-0.093s0.908-0.803,1.075-1.039c0.169-0.239,1.245-1.504,1.496-1.973    c0.253-0.469,1.462-1.263,1.702-1.499c0.244-0.234,1.029-0.324,1.196-0.634c0.167-0.313,1.296-1.707,1.69-1.941    s1.196-1.311,1.518-1.998c0.325-0.685,0.497-1.447,1.446-3.041c0.952-1.594,1.134-4.817,1.673-5.491    C204.667,116.466,203.821,116.769,203.821,116.769z M122.423,94.125c0.094,0.009,0.299,0.021,0.5,0.029    c0.113,0.006,0.223,0.011,0.314,0.015C122.981,94.159,122.567,94.141,122.423,94.125z"
         id="path3541" /><linearGradient
         id="SVGID_29_"
         gradientUnits="userSpaceOnUse"
         x1="145.5859"
         y1="23.269"
         x2="159.1899"
         y2="23.269"><stop
           offset="0.1065"
           style="stop-color:#F79227"
           id="stop3544" /><stop
           offset="1"
           style="stop-color:#A91F23"
           id="stop3546" /></linearGradient><path
         fill="url(#SVGID_29_)"
         d="M147.603,23.682c0.792,0.01,1.081-0.82,1.805-0.814c0.725,0.008,0.042,0.837,0.041,0.836    c-1.986,0.429-2.072,0.274-0.552,1.349c1.519,1.073,1.188,0.019,2.169,0.485c0.981,0.465,0.465,0.011,1.09-1.271    c0.623-1.287,0.332-0.987,1.432-1.128c1.098-0.145,0.975,0.93,1.466,1.164c0,0,1.114,0.475,2.165,0.488    c1.053,0.014,1.256-0.447,0.795-0.452c-0.461-0.006-1.314-0.016-2.225-0.95s-3.405-1.414-3.405-1.413c0,0,0.726,0.005,1.073,0.163    c0.35,0.156,1.816,0.321,2.736,0.328c0.921,0.006,1.107-0.069,2.295-0.53c1.187-0.46,0.512-1.094,0.512-1.094    s-2.035-0.006-3.021-0.009c-0.984-0.003-1.84-0.007-3.088-0.011c-1.25-0.004-1.594,0.38-3.436,0.37    c-1.842-0.009-2.104-0.01-3.026-0.015c-0.919-0.004-0.9,0.676-0.788,1.581C145.753,23.661,146.81,23.672,147.603,23.682z"
         id="path3548" /><linearGradient
         id="SVGID_30_"
         gradientUnits="userSpaceOnUse"
         x1="184.5889"
         y1="32.0713"
         x2="190.9697"
         y2="32.0713"><stop
           offset="0.1065"
           style="stop-color:#F79227"
           id="stop3551" /><stop
           offset="1"
           style="stop-color:#A91F23"
           id="stop3553" /></linearGradient><path
         fill="url(#SVGID_30_)"
         d="M187.133,33.717c0.633,0.551,1.446,1.027,1.639,1.031c0.192,0.004,2.198-0.422,2.198-0.423    c-0.887-0.244-3.744-0.938-2.628-3.16c-0.665-0.599-1.338-1.189-2.019-1.771c-0.321,0.147,0.011,0.49-0.154,0.487    c-0.194-0.003-0.21,0.471-0.26,1.252c-0.049,0.779,0.096,0.935-0.389,1.239c-0.484,0.3-0.99,0.369-0.926,0.987    C184.657,33.977,186.501,33.165,187.133,33.717z"
         id="path3555" /><linearGradient
         id="SVGID_31_"
         gradientUnits="userSpaceOnUse"
         x1="147.7139"
         y1="77.4771"
         x2="150.002"
         y2="77.4771"><stop
           offset="0.1065"
           style="stop-color:#F79227"
           id="stop3558" /><stop
           offset="1"
           style="stop-color:#A91F23"
           id="stop3560" /></linearGradient><path
         fill="url(#SVGID_31_)"
         d="M148.109,77.115c0.04,0.675,0.081,1.347,0.119,2.019c0.235,0.012,0.471,0.024,0.706,0.037    c0.084-0.163,0.167-0.327,0.252-0.49c0.208-0.031,0.416-0.062,0.625-0.092c0,0,0.301-1.93,0.146-2.127    c0,0-0.373-0.399-0.524-0.597c-0.154-0.198-0.63,0.027-0.63,0.027c-0.182,0.075-0.363,0.149-0.547,0.223    c-0.18,0.095-0.361,0.19-0.543,0.286C147.845,76.639,147.978,76.877,148.109,77.115z"
         id="path3562" /><linearGradient
         id="SVGID_32_"
         gradientUnits="userSpaceOnUse"
         x1="148.1655"
         y1="74.5776"
         x2="149.4839"
         y2="74.5776"><stop
           offset="0.1065"
           style="stop-color:#F79227"
           id="stop3565" /><stop
           offset="1"
           style="stop-color:#A91F23"
           id="stop3567" /></linearGradient><path
         fill="url(#SVGID_32_)"
         d="M148.706,75.445c0.703,0.04,0.809-0.46,0.771-1.03c-0.037-0.572-1.18-0.955-1.291-0.518    C148.187,73.897,148.005,75.407,148.706,75.445z"
         id="path3569" /><linearGradient
         id="SVGID_33_"
         gradientUnits="userSpaceOnUse"
         x1="192.376"
         y1="35.7666"
         x2="193.7998"
         y2="35.7666"><stop
           offset="0.1065"
           style="stop-color:#F79227"
           id="stop3572" /><stop
           offset="1"
           style="stop-color:#A91F23"
           id="stop3574" /></linearGradient><path
         fill="url(#SVGID_33_)"
         d="M193.8,36.418c-0.424-0.438-0.853-0.873-1.285-1.303c-0.038,0.034-0.072,0.076-0.099,0.135    C192.156,35.853,193.229,36.251,193.8,36.418z"
         id="path3576" /><linearGradient
         id="SVGID_34_"
         gradientUnits="userSpaceOnUse"
         x1="122.8843"
         y1="74.5933"
         x2="224.5596"
         y2="74.5933"><stop
           offset="0.1065"
           style="stop-color:#F79227"
           id="stop3579" /><stop
           offset="1"
           style="stop-color:#A91F23"
           id="stop3581" /></linearGradient><path
         fill="url(#SVGID_34_)"
         d="M224.56,102.532c-2.439-24.938-13.199-47.458-29.492-64.788c-0.015,0.033-0.029,0.067-0.053,0.102    c-0.525,0.798-0.695-0.217-0.695-0.218c0,0-0.381-0.512-0.891-0.522c-0.51-0.009-1.022,0.891-1.021,0.89    c-0.631-0.114-1.262-0.228-1.895-0.341c-0.152,0.198-0.304,0.395-0.456,0.592c-0.478,0.023-0.956,0.046-1.435,0.068    c0,0,0.473-0.389,0.502-0.994c0.027-0.605-0.967-0.322-1.213-0.227c-0.247,0.095-0.887,0.484-0.887,0.484s-0.844,0.081-1.325,0.37    c-0.481,0.29-1.233,1.267-1.233,1.266c-0.084,0.295-0.168,0.591-0.252,0.886c0,0-1.684,0.151-2.15-0.258    c-0.471-0.406-1.057-1.116,0.143-1.083c1.195,0.032-0.297-1.202-1.326-1.229c-1.028-0.027-1.285-0.031-0.986,1.167    c0.301,1.196,1.377,1.715,1.438,2.305c0.061,0.59-0.406,0.184-0.406,0.184s-0.49-0.602-1.089-0.62    c-0.597-0.017-2.132,0.816-2.335,1.293c-0.205,0.479,1.076,1.293,0.669,1.472c-0.406,0.18-1.883-0.064-2.634-0.668    c-0.752-0.604-1.859,0.225-0.411,0.947c1.446,0.724,1.023,1.565,0.362,0.968c-0.662-0.595-1.223-0.999-1.564-1.012    c-0.344-0.013-1.046-0.134-1.046-0.134s0.218-0.375-0.374-1.069c-0.596-0.694-0.315-1.265-0.315-1.265s-0.972-0.229-1.731-0.836    c-0.761-0.606,0.227-0.282,0.571-0.271c0.347,0.013,1.993,0.847,3.468,0.991c1.474,0.146,3.49-0.176,3.395-1.062    c-0.097-0.887-0.883-1.8-1.928-1.93c-1.044-0.129-1.648-0.146-2.432-0.961c-0.779-0.814-2.103-1.053-3.316-1.088    c-1.216-0.036-1.502-0.241-1.885-0.549c-0.383-0.309-1.967,0.239-1.967,0.238c0,0-0.805-0.912-0.454-0.902    c0.347,0.01,0.347,0.01,0.347,0.01s-0.447-0.112-0.832-0.422c-0.386-0.308-1.371-0.535-1.371-0.535    c-0.038,0.164-0.076,0.329-0.114,0.492c-0.073-0.365-0.147-0.73-0.22-1.096c-0.268,0.191-0.535,0.381-0.803,0.572    c-0.227,0.29-0.452,0.58-0.678,0.869c-0.012-0.329-0.022-0.658-0.033-0.989c-0.285,0.289-0.57,0.577-0.856,0.863    c0.065-0.424,0.13-0.85,0.194-1.277c0,0-0.464-0.212-1.217,0.062c-0.753,0.275-1.044,0.758-1.008,1.054    c0.037,0.294-0.525-0.017-0.791-0.025c-0.264-0.008-1.032,0.162-1.032,0.162s-0.063,0.194-0.769,0.171    c-0.705-0.023-1.207-0.529-1.146-0.039c0.059,0.487-0.801,0.65-1.056,0.737c-0.253,0.088-0.303,1.146-0.303,1.146    c0,0-1.296,0.24-1.585,0.037c-0.289-0.205-0.588,0.265-0.598,0.932c-0.011,0.667-0.534,0.738-0.791,0.824    c-0.256,0.085-0.961,0.905-0.961,0.904c-0.08,0.343-0.159,0.684-0.239,1.025c0,0.001-0.153,1.025-0.503,1.101    c-0.348,0.078-0.953,1.073-1.403,1.05c-0.45-0.021-0.601,1.082-0.963,1.063c-0.362-0.019-0.542-0.028-0.815-0.042    c-0.271-0.014-1.633-0.085-1.633-0.085c0,0.001-0.059,1.192-0.313,1.36c-0.255,0.17-0.438,0.161-1.049,0.4    c-0.613,0.239-1.072,0.213-1.045,0.489c0.026,0.275,0.447,0.844,0.447,0.844c0.584,0.063,1.166,0.128,1.748,0.192    c-0.725,0.019-1.451,0.038-2.182,0.057c0.111,0.52,0.222,1.039,0.332,1.557c0.471-0.183,0.941-0.367,1.408-0.551    c-0.346,0.494-0.695,0.985-1.046,1.476c0.285,0.438,0.57,0.875,0.855,1.311c0,0-0.021,0.717,1.698,0.552    c1.717-0.166,1.914-0.878,2.271-0.947c0.357-0.068,0.836-1.582,1-0.848c0.146,0.652,0.164,0.725,0.795,0.769    c0.082,0.005,0.174,0.01,0.275,0.016c0.907,0.051-1.123,0.48-0.08,0.991s0.771,0.497,1.35,1.788    c0.578,1.288,0.323,1.45,0.359,1.807c0.033,0.36,0.448,0.918,0.992,0.95c0.541,0.032,0.795-0.129,0.851-0.485    c0.055-0.354,0.775-0.313,1.405-0.276c0.629,0.035,1.238-0.104,1.031-1.285c-0.209-1.177-0.056-2.257-0.056-2.257    c0.003,0,2.323-0.689,1.945-1.714c-0.375-1.029-1.847-0.735-2.325-2.691c-0.479-1.961,1.276-2.067,2.255-2.767    c0.977-0.702,1.604-1.335,1.604-1.335s-1.004-0.327-0.517-0.684c0.484-0.356,0.518-0.83,0.958-0.812s1.286-0.231,1.549-0.221    c0.064,0.003,0.225,0.013,0.425,0.039c0.619,0.072,1.619,0.254,1.397,0.606c-0.295,0.466-0.076,0.854-0.34,0.843    c-0.262-0.008-2.162,1.702-2.164,1.698c0,0-1.346,0.502-0.957,1.637c0.391,1.134,0.799,2.446,0.799,2.445    c0,0,0.041,0.37,0.578,0.489c0.539,0.119,0.951,0.69,1.391,0.712c0.44,0.022,1.316,0.065,1.58,0.077    c0.264,0.013,1.117-0.132,1.379-0.12c0.262,0.013,0.62,0.122,0.872,0.042c0.251-0.08,0.626-0.618,0.626-0.618    c0.112,0.005,0.226,0.01,0.338,0.016c0.207,0.009,0.413,0.019,0.619,0.028c0.329,0.108,0.658,0.216,0.984,0.323    c-0.323,0.202-0.648,0.402-0.973,0.602c-0.16,0.115-0.32,0.23-0.48,0.345c-1.069-0.019-2.142-0.039-3.219-0.06    c0.002,0.001-2.25,0.989-0.758,1.879c0.269,0.161,0.488,0.331,0.667,0.497c0.806,0.757,0.722,1.493,0.155,1.538    c-0.692,0.054-0.924-0.499-0.924-0.499c0,0.001-0.934-1.405-2.031-1.011c-1.102,0.396-1.004,0.491-0.293,1.43    c0.713,0.937,0.064,0.632,0.367,1.008c0.303,0.374-0.279,0.702,0.199,1.083c0.213,0.171-0.083,0.313-0.404,0.445    c-0.398,0.167-0.841,0.32-0.383,0.492c0.825,0.313-1.826,0.256-1.83,0.255c-0.26-0.251-0.521-0.502-0.782-0.754    c0.001,0-1.304,0.281-1.997,0.508c-0.689,0.226-2.09,0.587-2.092,0.587c-0.11-0.035-0.221-0.071-0.332-0.106    c-0.229-0.074-0.457-0.147-0.688-0.22c0.001,0-0.973-0.766-1.22-0.514c-0.247,0.25-0.96,0.384-1.325,0.362    c-0.363-0.022-0.93-0.232-1.229-0.515c-0.299-0.285-1,0.025-0.898-0.853c0.1-0.881,0.211-0.698,0.896-1.102    c0.689-0.404,0.87-0.393,0.563-0.768c-0.307-0.376-1.086,0.024-0.871-0.588c0.213-0.612,0.695-1.212,0.242-1.24    c-0.456-0.027-0.902,0.037-1.233,0.375c-0.331,0.34-0.673,0.585-0.673,0.585s-1.092,0.025-1.059,0.385    c0.032,0.357-0.01,0.887,0.115,1.251c0.125,0.366,1.143,1.49,1.143,1.49c0,0.001-0.172,1.141-0.541,1.117    c-0.354-0.022,0.138,0.087-1.523,0.522c-0.086,0.022-0.17,0.046-0.266,0.069c-1.994,0.488-2.158-0.314-2.719,0.791    c-0.565,1.104,0.013,1.313-1.381,1.486c-0.063,0.009-0.117,0.016-0.174,0.024c-1.179,0.172-0.746,0.452-0.998,0.685    c-0.158,0.145-0.66,0.208-1.032,0.326c0.089-0.089,0.048-0.208-0.226-0.367c-0.893-0.517-1.41,0.233-0.894-0.517    s0.821-0.469,1.058-1.109c0.236-0.641,0.515-0.688-0.07-0.925c-0.583-0.234-1.238,0.511-1.77,0.08    c-0.531-0.429,0.201-0.184-0.148-1.063c-0.35-0.88,0.068-0.984-0.686-1.563c-0.753-0.58-1.088-0.272-1.088-0.272    c0.002,0.001,0.546-1.285-0.771-1.772c-1.317-0.486-1.87-0.191-1.87-0.191c0,0,0.064-0.129,1.244-0.581    c1.179-0.453,1.174-1.387,1.174-1.387s-1.376-0.422-1.949-0.46c-0.57-0.037-1.031,0.53-1.116,0.324    c-0.086-0.205,0.093-0.726,0.571-0.961c0.481-0.235,0.949-0.605,0.949-0.605c-0.788-0.118-1.577-0.236-2.37-0.355    c0,0-0.444,0.771-1.056,1.262c-0.613,0.491-0.738,0.814-0.708,1.28c0.03,0.467,1.197,0.68,1.196,0.68    c0.001,0-0.895,0.668-0.533,0.692c0.366,0.025,1.729-0.016,1.305,0.089c-0.425,0.104-1.055,0.391-1.055,0.391    c0.291,0.02,0.58,0.04,0.869,0.06c0.001,0-1.179,0.78-0.889,0.8c0.293,0.02,1.652-0.152,1.652-0.152s0.627-0.289,0.676,0.442    c0.051,0.732,0.596,1.362,0.596,1.362c-0.001,0,1.098,0.272-0.164,0.778c-1.268,0.506-1.197,0.51-1.561,0.485    c-0.365-0.025,0.928,0.918,0.503,1.085c-0.425,0.168-1.54-0.172-1.6,0.086c-0.058,0.258,0.554,0.694,0.993,0.724    s1.439,0.885,2.102-0.117c0,0-0.369,1.021-1.325,0.891c-0.955-0.132-1.888,0.197-1.973,1.367c0,0,0.649-0.281,1.897-0.195    c1.245,0.085,1.086-0.122,1.816-0.072c0.728,0.05,0.797-0.01,1.594,0.045c0.799,0.054,1.588,0.041,2.158,0.013    c0.287-0.013,0.824-0.043,1.173-0.136c-0.089,0.062-0.149,0.133-0.143,0.227c0.031,0.437-0.015,1.13-0.494,1.098    s-0.626,0.653-0.626,0.653c0.002,0-1.127,0.356-1.846-0.298c-0.717-0.656-0.804-0.488-0.566,0.222    c0.238,0.71,0.541,0.904-0.141,0.858c-0.68-0.046-1.359-0.005-1.359-0.005s-1.484-0.361-1.972-0.307    c-0.488,0.053-0.437,1.011-0.418,1.358c0.019,0.348,0.664-0.473,1.794,0.468c1.131,0.94,1.953,1.685,2.065,1.95    c0.112,0.267,0.344,0.885,0.382,1.574c0.039,0.69,0.434,2.516-0.158,2.478c-0.205-0.013-0.455,0.023-0.694,0.075    c-0.45,0.098-0.862,0.255-0.863,0.255c-2.392-0.408-4.815-0.822-7.271-1.244c0.008,0-3.155,0.311-1.981,1.769    c0,0,0.043,0.161,0.096,0.448c0.07,0.39,0.159,1.015,0.186,1.81c0.044,1.378-0.879,1.753-1.181,2.165    c-0.3,0.411-0.696,1.249-0.173,1.279c0.523,0.031,0.686,2.188,0.685,2.187c-0.001,0-0.2,0.248,1.052,0.316    c1.096,0.061,0.915,0.247,1.131,0.136c0.027-0.016,0.068-0.037,0.117-0.066c0.409-0.235,1.436-0.348,1.772,0.609    c0.34,0.958,0.448,1.132,1.062,1.08c0.611-0.053,0.176-0.928,1.196-0.873c1.02,0.054,1.216-0.191,2.328-0.131    c1.108,0.06,1.81,0.097,1.81,0.097s0.66-0.979,1.161-0.868c0.502,0.112,0.53-1.494,1.224-1.456    c0.691,0.039-0.566-1.641,0.48-2.346c1.043-0.703,1.191-1.542,1.971-1.496c0.781,0.046,1.535-0.25,1.535-0.25    c0.16-0.584,0.318-1.169,0.477-1.755c0,0-0.357-1.214,0.889-1.139c1.245,0.076,2.535,1.003,3.377,0.882    c0.842-0.12,1.089-0.614,1.437-1.017c0.058-0.069,0.093-0.147,0.116-0.227c0.115-0.387-0.009-0.815,1.33-0.453    c1.613,0.435,2.166,0.467,2.238,1.486c0.07,1.02-0.046,0.675,1.025,1.494c1.07,0.82,1.851,1.533,2.695,1.83    c0.841,0.294,1.635-0.08,2.646,1.474c1.007,1.55,2.117,2.016,1.313,2.143c-0.807,0.125,0.229,0.756-1.225,0.686    c-1.457-0.071-1.449,0.093-2.367,0.048c-0.92-0.045-1.266,0.354-0.969,0.699c0.302,0.349,3.297,1.564,3.293,1.562    c0.183-0.485,0.365-0.972,0.548-1.458c0.001,0,0.994-0.035,1.319-0.6c0.325-0.561,0.564-1.045,1.104-1.02    c0.539,0.027-0.614-1.188-0.992-1.458c-0.377-0.269,0.368-1.227,1.338-0.099c0.967,1.125,1.986,0.348,0.208-0.904    c-1.786-1.256-2.411-1.125-2.692-1.306c-0.284-0.181-0.416-0.776-0.416-0.776c-0.463-0.165-0.927-0.33-1.391-0.494    c-0.174-0.317-0.348-0.634-0.523-0.953c0,0-0.121-0.427-1.076-1.072c-0.958-0.645-1.451-1.098-1.451-1.098    c0.001,0.001-0.571-1.562,0.254-1.514c0.578,0.033,0.635-0.298,0.893-0.188c0.109,0.048,0.254,0.17,0.49,0.437    c0.796,0.896,1.275,1.26,1.561,1.446c0.285,0.185,0.711,1.054,1.455,1.346c0.74,0.294,0.95,0.725,1.317,0.83    c0.365,0.103,1.083,0.141,1.083,0.141c0.043,0.033,0.088,0.065,0.131,0.099c0.586,0.447,1.171,0.894,1.754,1.338    c0,0.001,0.031,1.671,0.226,1.927c0.196,0.259,0.646,1.689,1.173,1.631c0.098-0.01,0.173-0.007,0.239,0.004    c0.294,0.043,0.343,0.28,0.513,0.692c0.21,0.505,0.355,1.416,0.355,1.416c0.225,0.312,0.45,0.623,0.674,0.933    c0,0,0.645,0.438,1,0.534c0.357,0.098,1.411,0.224,1.41,0.224c-0.045-0.274-0.091-0.548-0.137-0.822    c0.145-0.021,0.288-0.043,0.432-0.064c-0.25-0.284-0.5-0.567-0.749-0.852c0.39,0.182,0.777,0.363,1.165,0.543    c0.164-0.157,0.328-0.314,0.491-0.471c-0.465-0.483-0.931-0.969-1.399-1.457c-0.258-0.395-0.518-0.792-0.777-1.189    c0,0-0.243-1.003,0.234-0.402c0.477,0.601,0.549,0.356,0.949-0.121c0.402-0.478-0.457-0.353,0.402-0.478    c0.777-0.115,1.039-0.453,1.362-0.197c0.032,0.026,0.067,0.057,0.103,0.099c0.322,0.369,1.135,0.636,1.364,0.707    c0.032-0.021,0.063,0.02,0.063,0.02s-0.022-0.007-0.063-0.02c-0.046,0.033-0.095,0.203-0.052,0.838    c0.072,1.071,0.275,1.571,0.475,1.988c0.199,0.418,0.589,1.167,1.018,1.184c0.428,0.018,0.775,0.115,0.971,0.529    c0.198,0.413,0.582,1.158,0.582,1.157c0.543,0.075,1.086,0.149,1.625,0.224c0.001,0,0.527,0.344,0.766,0.109    c0.239-0.232,0.554-0.626,0.554-0.626s0.647-0.459,1.44,0.216c0.792,0.674,0.713,0.752,1.711,0.706    c0.996-0.045,0.523-1.027,1.115-0.846c0.592,0.183,1.42,0.212,1.832,0.226c0.232,0.008,0.359,0.042,0.432,0.15    c0.059,0.087,0.082,0.218,0.095,0.429c0.027,0.484,0.201,2.247,0.139,2.64c-0.058,0.366-0.05,0.73-0.358,1.024    c-0.026,0.025-0.051,0.051-0.08,0.075c-0.396,0.305-0.886,0.45-0.855,1.083c0.029,0.634,0.131,1.032,0.155,1.584    c0.016,0.355,0.11,1.727,0.38,2.968c0.148,0.687,0.352,1.335,0.631,1.757c0.775,1.185,0.428,0.48,1.703,2.056    c1.269,1.571,0.795,2.254,1.627,3.038c0.828,0.781,1.465,0.332,1.984,2.174c0.002,0-0.275,2.368,0.775,3.138    c1.052,0.77,1.446,0.468,2.099,1.914c0.648,1.444,1.441,1.597,1.999,2.204c0.231,0.252,0.352,0.426,0.414,0.591    c0.089,0.232,0.063,0.448,0.063,0.844c0.001,0.68-0.155,1.208,0.001,2.189c0.155,0.981,0.154,1.359,0.547,1.81    c0.391,0.452,0.311,0.83,1.489,0.447c1.177-0.381,0.241-0.828,1.567-0.832c1.328-0.003,2.953-0.608,2.952-0.608    c0,0,0.081-1.049,1.083-1.05c1.001,0,1.078-0.525,1.846-0.897c0.766-0.375,1.299-0.374,1.377-0.896    c0.074-0.522,0.455-1.119,0.683-1.118c0.025,0,0.046,0,0.069,0c0.182,0.001,0.301,0.001,0.846,0.001    c0.607,0.001,1.141,0.002,1.518-0.073c0.381-0.073-0.762-1.118,0.225-1.116c0.984,0.003,1.288,0.152,1.36-0.517    c0.073-0.67,1.052-0.965,1.052-0.965s-0.004-0.596-0.004-0.819c-0.002-0.223-0.462-1.121,0.217-1.118    c0.68,0.003,0.302,0.001,1.2-0.741c0.897-0.739,0.814-1.637,0.583-2.011c-0.229-0.376-0.229-0.301-0.533-0.603    c-0.305-0.302-0.689-0.979-0.916-0.981s-0.906,0.07-1.29-0.234c-0.382-0.304-0.917-0.61-1.153-1.063    c-0.051-0.103-0.097-0.246-0.135-0.406c-0.137-0.559-0.197-1.334-0.197-1.334c0,0.001-1.564,2.026-2.172,2.32    c-0.604,0.296-2.141,0.056-2.523,0.278c-0.059,0.034-0.145,0.026-0.246-0.012c-0.535-0.194-1.557-1.299-2.029-2.136    c-0.565-0.997,0.135-0.911-0.737-1.762c-0.613-0.598-1.353-1.463-1.745-2.115c-0.167-0.277-0.272-0.516-0.276-0.675    c-0.017-0.539,1.329-2.445,1.987-1.274c0.658,1.17,1.395,2.561,2.947,3.114c0,0.001,0.723,1.229,1.877,1.471    c1.154,0.242,2.502-1.11,2.967-0.648c0.467,0.459,0.416,1.824,1.859,2.062c1.443,0.239,2.582,0.776,3.334,0.782    c0.271,0.002,0.523-0.025,0.837-0.058c0.554-0.056,1.3-0.127,2.689-0.068c2.169,0.087,2.311-0.665,2.767,0.165    c0.455,0.826,0.235,1.498,1.576,1.503c0.19,0,0.334,0.036,0.449,0.091C222.741,101.881,222.398,102.977,224.56,102.532z     M165.228,62.049c0.053,0.074,0.092,0.135,0.129,0.189c0.012,0.018,0.018,0.031,0.029,0.048    C165.343,62.219,165.294,62.146,165.228,62.049z M168.95,55.147c-0.014-0.016-0.023-0.038-0.035-0.057    c0.016,0.023,0.029,0.047,0.045,0.066C168.957,55.152,168.952,55.152,168.95,55.147z M204.528,107.641    c0,0-0.041,0.033-0.111,0.072l0.001,0.001c0,0-0.001-0.001-0.003-0.001C204.464,107.684,204.528,107.641,204.528,107.641z     M218.079,83.638c0.143-0.012,0.285-0.024,0.426-0.036c0.015,0,0.029-0.001,0.045-0.001    C218.393,83.613,218.237,83.625,218.079,83.638z"
         id="path3583" /><linearGradient
         id="SVGID_35_"
         gradientUnits="userSpaceOnUse"
         x1="223.1133"
         y1="104.0283"
         x2="224.7979"
         y2="104.0283"><stop
           offset="0.1065"
           style="stop-color:#F79227"
           id="stop3586" /><stop
           offset="1"
           style="stop-color:#A91F23"
           id="stop3588" /></linearGradient><path
         fill="url(#SVGID_35_)"
         d="M224.578,102.723c-0.146,0.248-0.521,0.631-1.465,0.679c0.448,0.572,0.895,1.142,1.341,1.711    c0,0,0.125,0.125,0.344,0.219C224.735,104.46,224.661,103.59,224.578,102.723z"
         id="path3590" /></g><defs
       id="defs3592"><filter
         id="Adobe_OpacityMaskFilter"
         filterUnits="userSpaceOnUse"
         x="34.723"
         y="3.723"
         width="158.55"
         height="123.096"><feFlood
           style="flood-color:white;flood-opacity:1"
           result="back"
           id="feFlood3595" /><feBlend
           in="SourceGraphic"
           in2="back"
           mode="normal"
           id="feBlend3597" /></filter></defs><mask
       maskUnits="userSpaceOnUse"
       x="34.723"
       y="3.723"
       width="158.55"
       height="123.096"
       id="SVGID_36_"><g
         filter="url(#Adobe_OpacityMaskFilter)"
         id="g3600"><defs
           id="defs3602"><filter
             id="Adobe_OpacityMaskFilter_1_"
             filterUnits="userSpaceOnUse"
             x="34.723"
             y="3.723"
             width="158.55"
             height="123.096"><feFlood
               style="flood-color:white;flood-opacity:1"
               result="back"
               id="feFlood3605" /><feBlend
               in="SourceGraphic"
               in2="back"
               mode="normal"
               id="feBlend3607" /></filter></defs><mask
           maskUnits="userSpaceOnUse"
           x="34.723"
           y="3.723"
           width="158.55"
           height="123.096"
           id="mask3609" /><linearGradient
           id="SVGID_37_"
           gradientUnits="userSpaceOnUse"
           x1="113.9976"
           y1="-16.7715"
           x2="113.9975"
           y2="292.3206"><stop
             offset="0.1065"
             style="stop-color:#FFFFFF"
             id="stop3612" /><stop
             offset="0.4469"
             style="stop-color:#000000"
             id="stop3614" /></linearGradient><ellipse
           mask="url(#SVGID_36_)"
           fill="url(#SVGID_37_)"
           cx="113.998"
           cy="65.271"
           rx="79.275"
           ry="61.548"
           id="ellipse3616" /></g></mask><g
       id="g3618"><defs
         id="defs3620"><filter
           id="Adobe_OpacityMaskFilter_2_"
           filterUnits="userSpaceOnUse"
           x="34.723"
           y="3.723"
           width="158.55"
           height="123.096"><feFlood
             style="flood-color:white;flood-opacity:1"
             result="back"
             id="feFlood3623" /><feBlend
             in="SourceGraphic"
             in2="back"
             mode="normal"
             id="feBlend3625" /></filter></defs><mask
         maskUnits="userSpaceOnUse"
         x="34.723"
         y="3.723"
         width="158.55"
         height="123.096"
         id="SVGID_38_"><g
           filter="url(#Adobe_OpacityMaskFilter_2_)"
           id="g3628"><defs
             id="defs3630"><filter
               id="Adobe_OpacityMaskFilter_3_"
               filterUnits="userSpaceOnUse"
               x="34.723"
               y="3.723"
               width="158.55"
               height="123.096"><feFlood
                 style="flood-color:white;flood-opacity:1"
                 result="back"
                 id="feFlood3633" /><feBlend
                 in="SourceGraphic"
                 in2="back"
                 mode="normal"
                 id="feBlend3635" /></filter></defs><mask
             maskUnits="userSpaceOnUse"
             x="34.723"
             y="3.723"
             width="158.55"
             height="123.096"
             id="mask3637" /><linearGradient
             id="SVGID_39_"
             gradientUnits="userSpaceOnUse"
             x1="113.9976"
             y1="-33.168"
             x2="113.9975"
             y2="275.9241"><stop
               offset="0.1065"
               style="stop-color:#FFFFFF"
               id="stop3640" /><stop
               offset="0.4469"
               style="stop-color:#000000"
               id="stop3642" /></linearGradient><ellipse
             mask="url(#SVGID_38_)"
             fill="url(#SVGID_39_)"
             cx="113.998"
             cy="65.271"
             rx="79.275"
             ry="61.548"
             id="ellipse3644" /></g></mask><linearGradient
         id="SVGID_40_"
         gradientUnits="userSpaceOnUse"
         x1="113.9976"
         y1="-33.168"
         x2="113.9975"
         y2="275.9241"><stop
           offset="0.1065"
           style="stop-color:#FBFCFC"
           id="stop3647" /><stop
           offset="0.4469"
           style="stop-color:#D66242;stop-opacity:0.00176471"
           id="stop3649" /></linearGradient><ellipse
         fill="url(#SVGID_40_)"
         cx="113.998"
         cy="65.271"
         rx="79.275"
         ry="61.548"
         id="ellipse3651"
         style="opacity:0.99999999" /></g><g
       id="path2844"
       inkscape:connector-curvature="0"><g
         id="g3654"><g
           enable-background="new    "
           id="g3656"><defs
             id="defs3658"><polygon
               id="SVGID_41_"
               enable-background="new    "
               points="77.89,90.698 77.974,45.542 178.889,31.359 178.805,76.515             " /></defs><clipPath
             id="SVGID_42_"><use
               xlink:href="#SVGID_41_"
               overflow="visible"
               id="use3662" /></clipPath><g
             clip-path="url(#SVGID_42_)"
             id="g3664"><g
               id="g3666"><g
                 id="g3668"><g
                   id="g3670"><path
                     fill="#010101"
                     d="M118.018,39.914c-0.919,0.129-4.938,2.297-8.169,4.398c-7.673,4.977-17.245,14.524-23.106,23.05          c-3.678,5.349-6.153,9.776-7.167,12.806c-0.886,2.674-1.709,6.464-1.68,7.73c0.033,1.807,0.325,2.594,0.95,2.506          c0.18-0.025,0.387-0.123,0.624-0.29c0.281-0.186,0.739-1.184,1.037-2.229c0.927-3.242,2.928-6.955,4.79-8.91          c3.057-3.196,5.568-5.053,7.147-5.275c0.005,0,0.009-0.001,0.014-0.002c1.578-0.213,2.857,1.224,2.853,3.204          c-0.001,0.604,0.017,0.815,0.219,0.787c0.095-0.014,0.233-0.081,0.429-0.187c0.36-0.189,0.994-0.961,1.413-1.72          c2.555-4.638,4.946-7.126,7.655-7.982c0.165-0.054,0.314-0.09,0.454-0.11c0.374-0.053,0.677,0.019,1.027,0.222          c0.544,0.321,0.647,0.669,0.645,2.096c-0.002,1.337,0.055,1.646,0.393,1.598c0.038-0.005,0.08-0.015,0.125-0.028          c0.289-0.075,1.171-0.908,1.957-1.839c2.537-3.019,5.103-5.117,8.053-6.586c0.866-0.435,1.357-0.641,1.734-0.694          c0.196-0.028,0.361-0.015,0.533,0.029c1.033,0.261,1.328,1.11,0.773,2.191c-0.265,0.521-0.483,1.191-0.483,1.494          c-0.001,0.467,0.151,0.55,0.896,0.445c0.665-0.093,1.21-0.421,2.108-1.273c1.182-1.115,2.082-1.712,2.787-1.812          c0.367-0.052,0.682,0.032,0.956,0.248c0.12,0.467,0.271,0.818,0.471,0.979c0.277,0.235,0.552,0.328,0.819,0.29          c0.265-0.037,0.523-0.203,0.767-0.486c0.088-0.073,0.185-0.121,0.273-0.22c0.12-0.13,0.225-0.352,0.313-0.606          c0.307-0.407,0.671-0.643,1.114-0.706c0.702-0.099,1.6,0.24,2.778,1.023c0.896,0.6,1.448,0.773,2.113,0.68          c0.745-0.114,0.897-0.221,0.898-0.697c0-0.303-0.222-0.911-0.486-1.35c-0.551-0.934-0.253-1.866,0.773-2.416          c0.175-0.09,0.344-0.149,0.542-0.177c0.382-0.054,0.873,0.011,1.733,0.203c2.938,0.65,5.506,2.027,8.04,4.324          c0.775,0.712,1.647,1.29,1.943,1.291c0.042,0,0.081-0.002,0.117-0.007c0.345-0.048,0.405-0.36,0.407-1.7          c0.002-1.435,0.107-1.804,0.661-2.28c0.346-0.308,0.644-0.465,1.017-0.518c0.138-0.02,0.286-0.024,0.45-0.017          c2.715,0.093,5.105,1.918,7.637,5.833c0.416,0.642,1.039,1.246,1.407,1.332c0.196,0.047,0.333,0.076,0.428,0.063          c0.202-0.029,0.221-0.241,0.222-0.845c0.003-1.979,1.288-3.786,2.866-4.016c1.586-0.223,4.091,0.929,7.138,3.275          c1.863,1.423,3.852,4.576,4.751,7.561c0.311,0.958,0.757,1.821,1.045,1.945c0.236,0.097,0.442,0.135,0.621,0.11          c0.627-0.088,0.917-0.954,0.97-2.771c0.035-1.275-0.784-4.843-1.66-7.27c-0.988-2.748-3.456-6.472-7.131-10.796          C164.193,48.931,154.644,42.08,147,39.246c-3.224-1.193-7.253-2.23-8.157-2.103c-0.002,0-0.005,0-0.007,0.001          c-1.018,0.151-0.69,0.832,0.861,1.789c0.896,0.548,1.903,1.306,2.248,1.655c0.328,0.36,0.951,0.904,1.375,1.207          c1.512,1.084,2.317,2.691,2.338,4.563c0.012,2.194-0.727,3.318-3.196,4.936c-1.636,1.077-1.924,1.178-4.071,1.532          c-0.533,0.086-1.01,0.16-1.435,0.22c-3.192,0.448-3.517,0.101-3.527-1.874c0.002-0.985-0.363-3.043-0.793-4.487          c-0.094-0.331-0.303-0.468-0.589-0.428c-0.439,0.062-1.061,0.542-1.727,1.385c-0.594,0.758-1.244,1.67-1.83,2.366          c-0.624-0.526-1.351-1.34-1.999-1.984c-0.653-0.657-1.27-0.963-1.709-0.902c-0.286,0.041-0.498,0.237-0.596,0.595          c-0.436,1.574-0.816,3.728-0.818,4.705c-0.01,1.98-0.336,2.417-3.504,2.862c-0.43,0.061-0.911,0.121-1.451,0.185          c-2.155,0.26-2.435,0.23-4.076-0.377c-2.473-0.915-3.192-1.842-3.171-4.041c0.011-1.877,0.831-3.713,2.34-5.221          c0.425-0.423,1.051-1.142,1.38-1.594c0.353-0.456,1.364-1.488,2.262-2.289c1.557-1.403,1.894-2.177,0.877-2.034          C118.023,39.914,118.021,39.914,118.018,39.914"
                     id="path3672" /></g></g></g></g></g></g></g></g></svg>